999
dxfrw 0.6.3
  0
SECTION
  2
HEADER
  9
$ACADVER
  1
AC1021
  9
$DWGCODEPAGE
  3
ANSI_1252
  9
$INSBASE
 10
0
 20
0
 30
0
  9
$EXTMIN
 10
0
 20
-3.996802888650564e-015
 30
0
  9
$EXTMAX
 10
76.19990100000004
 20
243.3872934
 30
0
  9
$LIMMIN
 10
0
 20
0
  9
$LIMMAX
 10
420
 20
297
  9
$ORTHOMODE
 70
    0
  9
$REGENMODE
 70
    1
  9
$FILLMODE
 70
    1
  9
$QTEXTMODE
 70
    0
  9
$MIRRTEXT
 70
    0
  9
$LTSCALE
 40
1
  9
$ATTMODE
 70
    0
  9
$TEXTSIZE
 40
2.5
  9
$TRACEWID
 40
15.68
  9
$TEXTSTYLE
  7
STANDARD
  9
$CLAYER
  8
0
  9
$CELTYPE
  6
BYLAYER
  9
$CECOLOR
 62
  256
  9
$CELTSCALE
 40
1
  9
$DISPSILH
 70
    0
  9
$DIMSCALE
 40
1
  9
$DIMASZ
 40
2.5
  9
$DIMEXO
 40
0.625
  9
$DIMDLI
 40
3.75
  9
$DIMRND
 40
0
  9
$DIMDLE
 40
0
  9
$DIMEXE
 40
1.25
  9
$DIMTP
 40
0
  9
$DIMTM
 40
0
  9
$DIMTXT
 40
2.5
  9
$DIMCEN
 40
2.5
  9
$DIMTSZ
 40
0
  9
$DIMTOL
 70
    0
  9
$DIMLIM
 70
    0
  9
$DIMTIH
 70
    0
  9
$DIMTOH
 70
    0
  9
$DIMSE1
 70
    0
  9
$DIMSE2
 70
    0
  9
$DIMTAD
 70
    1
  9
$DIMZIN
 70
    1
  9
$DIMBLK
  1

  9
$DIMASO
 70
    1
  9
$DIMSHO
 70
    1
  9
$DIMPOST
  1

  9
$DIMAPOST
  1

  9
$DIMALT
 70
    0
  9
$DIMALTD
 70
    3
  9
$DIMALTF
 40
0.03937
  9
$DIMLFAC
 40
1
  9
$DIMTOFL
 70
    1
  9
$DIMTVP
 40
0
  9
$DIMTIX
 70
    0
  9
$DIMSOXD
 70
    0
  9
$DIMSAH
 70
    0
  9
$DIMBLK1
  1

  9
$DIMBLK2
  1

  9
$DIMSTYLE
  2
Standard
  9
$DIMCLRD
 70
    0
  9
$DIMCLRE
 70
    0
  9
$DIMCLRT
 70
    0
  9
$DIMTFAC
 40
1
  9
$DIMGAP
 40
0.625
  9
$DIMJUST
 70
    0
  9
$DIMSD1
 70
    0
  9
$DIMSD2
 70
    0
  9
$DIMTOLJ
 70
    0
  9
$DIMTZIN
 70
    8
  9
$DIMALTZ
 70
    0
  9
$DIMALTTZ
 70
    0
  9
$DIMUPT
 70
    0
  9
$DIMDEC
 70
    4
  9
$DIMTDEC
 70
    2
  9
$DIMALTU
 70
    2
  9
$DIMALTTD
 70
    3
  9
$DIMTXSTY
  7
standard
  9
$DIMAUNIT
 70
    0
  9
$DIMADEC
 70
    2
  9
$DIMALTRND
 40
0
  9
$DIMAZIN
 70
    0
  9
$DIMDSEP
 70
    0
  9
$DIMATFIT
 70
    3
  9
$DIMFRAC
 70
    0
  9
$DIMLDRBLK
  1
STANDARD
  9
$DIMLUNIT
 70
    2
  9
$DIMLWD
 70
   -2
  9
$DIMLWE
 70
   -2
  9
$DIMTMOVE
 70
    0
  9
$DIMFXL
 40
1
  9
$DIMFXLON
 70
    0
  9
$DIMJOGANG
 40
0.7854
  9
$DIMTFILL
 70
    0
  9
$DIMTFILLCLR
 70
    0
  9
$DIMARCSYM
 70
    0
  9
$DIMLTYPE
  6

  9
$DIMLTEX1
  6

  9
$DIMLTEX2
  6

  9
$LUNITS
 70
    2
  9
$LUPREC
 70
    4
  9
$SKETCHINC
 40
1
  9
$FILLETRAD
 40
0
  9
$AUNITS
 70
    0
  9
$AUPREC
 70
    2
  9
$MENU
  1
.
  9
$ELEVATION
 40
0
  9
$PELEVATION
 40
0
  9
$THICKNESS
 40
0
  9
$LIMCHECK
 70
    0
  9
$CHAMFERA
 40
0
  9
$CHAMFERB
 40
0
  9
$CHAMFERC
 40
0
  9
$CHAMFERD
 40
0
  9
$SKPOLY
 70
    0
  9
$USRTIMER
 70
    1
  9
$ANGBASE
 50
0
  9
$ANGDIR
 70
    0
  9
$PDMODE
 70
   34
  9
$PDSIZE
 40
0
  9
$PLINEWID
 40
0
  9
$SPLFRAME
 70
    0
  9
$SPLINETYPE
 70
    2
  9
$SPLINESEGS
 70
    8
  9
$HANDSEED
  5
20000
  9
$SURFTAB1
 70
    6
  9
$SURFTAB2
 70
    6
  9
$SURFTYPE
 70
    6
  9
$SURFU
 70
    6
  9
$SURFV
 70
    6
  9
$UCSBASE
  2

  9
$UCSNAME
  2

  9
$UCSORG
 10
0
 20
0
 30
0
  9
$UCSXDIR
 10
1
 20
0
 30
0
  9
$UCSYDIR
 10
0
 20
1
 30
0
  9
$UCSORTHOREF
  2

  9
$UCSORTHOVIEW
 70
    0
  9
$UCSORGTOP
 10
0
 20
0
 30
0
  9
$UCSORGBOTTOM
 10
0
 20
0
 30
0
  9
$UCSORGLEFT
 10
0
 20
0
 30
0
  9
$UCSORGRIGHT
 10
0
 20
0
 30
0
  9
$UCSORGFRONT
 10
0
 20
0
 30
0
  9
$UCSORGBACK
 10
0
 20
0
 30
0
  9
$PUCSBASE
  2

  9
$PUCSNAME
  2

  9
$PUCSORG
 10
0
 20
0
 30
0
  9
$PUCSXDIR
 10
1
 20
0
 30
0
  9
$PUCSYDIR
 10
0
 20
1
 30
0
  9
$PUCSORTHOREF
  2

  9
$PUCSORTHOVIEW
 70
    0
  9
$PUCSORGTOP
 10
0
 20
0
 30
0
  9
$PUCSORGBOTTOM
 10
0
 20
0
 30
0
  9
$PUCSORGLEFT
 10
0
 20
0
 30
0
  9
$PUCSORGRIGHT
 10
0
 20
0
 30
0
  9
$PUCSORGFRONT
 10
0
 20
0
 30
0
  9
$PUCSORGBACK
 10
0
 20
0
 30
0
  9
$USERI1
 70
    0
  9
$USERI2
 70
    0
  9
$USERI3
 70
    0
  9
$USERI4
 70
    0
  9
$USERI5
 70
    0
  9
$USERR1
 40
0
  9
$USERR2
 40
0
  9
$USERR3
 40
0
  9
$USERR4
 40
0
  9
$USERR5
 40
0
  9
$WORLDVIEW
 70
    1
  9
$SHADEDGE
 70
    3
  9
$SHADEDIF
 70
   70
  9
$TILEMODE
 70
    1
  9
$MAXACTVP
 70
   64
  9
$PINSBASE
 10
0
 20
0
 30
0
  9
$PLIMCHECK
 70
    0
  9
$PEXTMIN
 10
0
 20
0
 30
0
  9
$PEXTMAX
 10
0
 20
0
 30
0
  9
$GRIDMODE
 70
    1
  9
$SNAPSTYLE
 70
    0
  9
$GRIDUNIT
 10
2.38125
 20
2.38125
  9
$PLIMMIN
 10
0
 20
0
  9
$PLIMMAX
 10
210
 20
297
  9
$UNITMODE
 70
    0
  9
$VISRETAIN
 70
    1
  9
$PLINEGEN
 70
    0
  9
$PSLTSCALE
 70
    1
  9
$TREEDEPTH
 70
 3020
  9
$CMLSTYLE
  2
Standard
  9
$CMLJUST
 70
    0
  9
$CMLSCALE
 40
20
  9
$PROXYGRAPHICS
 70
    1
  9
$MEASUREMENT
 70
    1
  9
$CELWEIGHT
370
   -1
  9
$ENDCAPS
280
    0
  9
$JOINSTYLE
280
    0
  9
$LWDISPLAY
290
    0
  9
$INSUNITS
 70
    4
  9
$HYPERLINKBASE
  1

  9
$STYLESHEET
  1

  9
$XEDIT
290
    1
  9
$CEPSNTYPE
380
    0
  9
$PSTYLEMODE
290
    1
  9
$EXTNAMES
290
    1
  9
$PSVPSCALE
 40
1
  9
$OLESTARTUP
290
    0
  9
$SORTENTS
280
  127
  9
$INDEXCTL
280
    0
  9
$HIDETEXT
280
    1
  9
$XCLIPFRAME
290
    0
  9
$HALOGAP
280
    0
  9
$OBSCOLOR
 70
  257
  9
$OBSLTYPE
280
    0
  9
$INTERSECTIONDISPLAY
280
    0
  9
$INTERSECTIONCOLOR
 70
  257
  9
$DIMASSOC
280
    1
  9
$PROJECTNAME
  1

  9
$CAMERADISPLAY
290
    0
  9
$LENSLENGTH
 40
50
  9
$CAMERAHEIGHT
 40
0
  9
$STEPSPERSEC
 40
2
  9
$STEPSIZE
 40
50
  9
$3DDWFPREC
 40
2
  9
$PSOLWIDTH
 40
5
  9
$PSOLHEIGHT
 40
80
  9
$LOFTANG1
 40
1.570796326794897
  9
$LOFTANG2
 40
1.570796326794897
  9
$LOFTMAG1
 40
0
  9
$LOFTMAG2
 40
0
  9
$LOFTPARAM
 70
    7
  9
$LOFTNORMALS
280
    1
  9
$LATITUDE
 40
1
  9
$LONGITUDE
 40
1
  9
$NORTHDIRECTION
 40
0
  9
$TIMEZONE
 70
-8000
  9
$LIGHTGLYPHDISPLAY
280
    1
  9
$TILEMODELIGHTSYNCH
280
    1
  9
$SOLIDHIST
280
    1
  9
$SHOWHIST
280
    1
  9
$DWFFRAME
280
    2
  9
$DGNFRAME
280
    0
  9
$REALWORLDSCALE
290
    1
  9
$INTERFERECOLOR
 62
    1
  9
$CSHADOW
280
    0
  9
$SHADOWPLANELOCATION
 40
0
  0
ENDSEC
  0
SECTION
  2
CLASSES
  0
ENDSEC
  0
SECTION
  2
TABLES
  0
TABLE
  2
VPORT
  5
8
330
0
100
AcDbSymbolTable
 70
    1
  0
VPORT
  5
31
330
2
100
AcDbSymbolTableRecord
100
AcDbViewportTableRecord
  2
*ACTIVE
 70
    0
 10
0
 20
0
 11
1
 21
1
 12
161.2729327500012
 22
130.084880625001
 13
0
 23
0
 14
10
 24
10
 15
2.38125
 25
2.38125
 16
0
 26
0
 36
1
 17
0
 27
0
 37
0
 40
286.9947180000023
 41
1.716216216216216
 42
50
 43
0
 44
0
 50
0
 51
0
 71
    0
 72
  100
 73
    1
 74
    3
 75
    0
 76
    1
 77
    0
 78
    0
281
    0
 65
    1
110
0
120
0
130
0
111
1
121
0
131
0
112
0
122
1
132
0
 79
    0
146
0
348
10020
 60
    3
 61
    5
292
1
282
    1
141
0
142
0
 63
  250
421
3358443
  0
ENDTAB
  0
TABLE
  2
LTYPE
  5
5
330
0
100
AcDbSymbolTable
 70
    4
  0
LTYPE
  5
14
330
5
100
AcDbSymbolTableRecord
100
AcDbLinetypeTableRecord
  2
ByBlock
 70
    0
  3

 72
   65
 73
    0
 40
0
  0
LTYPE
  5
15
330
5
100
AcDbSymbolTableRecord
100
AcDbLinetypeTableRecord
  2
ByLayer
 70
    0
  3

 72
   65
 73
    0
 40
0
  0
LTYPE
  5
16
330
5
100
AcDbSymbolTableRecord
100
AcDbLinetypeTableRecord
  2
Continuous
 70
    0
  3
Solid line
 72
   65
 73
    0
 40
0
  0
LTYPE
  5
32
330
5
100
AcDbSymbolTableRecord
100
AcDbLinetypeTableRecord
  2
DOT
 70
    0
  3
Dot . . . . . . . . . . . . . . . . . . . . . .
 72
   65
 73
    2
 40
6.35
 49
0
 74
    0
 49
-6.35
 74
    0
  0
LTYPE
  5
33
330
5
100
AcDbSymbolTableRecord
100
AcDbLinetypeTableRecord
  2
DOTTINY
 70
    0
  3
Dot (.15x) .....................................
 72
   65
 73
    2
 40
0.9525
 49
0
 74
    0
 49
-0.9525
 74
    0
  0
LTYPE
  5
34
330
5
100
AcDbSymbolTableRecord
100
AcDbLinetypeTableRecord
  2
DOT2
 70
    0
  3
Dot (.5x) .....................................
 72
   65
 73
    2
 40
3.175
 49
0
 74
    0
 49
-3.175
 74
    0
  0
LTYPE
  5
35
330
5
100
AcDbSymbolTableRecord
100
AcDbLinetypeTableRecord
  2
DOTX2
 70
    0
  3
Dot (2x) .  .  .  .  .  .  .  .  .  .  .  .  .
 72
   65
 73
    2
 40
12.7
 49
0
 74
    0
 49
-12.7
 74
    0
  0
LTYPE
  5
36
330
5
100
AcDbSymbolTableRecord
100
AcDbLinetypeTableRecord
  2
DASHED
 70
    0
  3
Dashed _ _ _ _ _ _ _ _ _ _ _ _ _ _ _ _ _
 72
   65
 73
    2
 40
19.05
 49
12.7
 74
    0
 49
-6.35
 74
    0
  0
LTYPE
  5
37
330
5
100
AcDbSymbolTableRecord
100
AcDbLinetypeTableRecord
  2
DASHEDTINY
 70
    0
  3
Dashed (.15x) _ _ _ _ _ _ _ _ _ _ _ _ _ _ _ _ _
 72
   65
 73
    2
 40
2.8575
 49
1.905
 74
    0
 49
-0.9525
 74
    0
  0
LTYPE
  5
38
330
5
100
AcDbSymbolTableRecord
100
AcDbLinetypeTableRecord
  2
DASHED2
 70
    0
  3
Dashed (.5x) _ _ _ _ _ _ _ _ _ _ _ _ _ _ _ _ _
 72
   65
 73
    2
 40
9.524999999999999
 49
6.35
 74
    0
 49
-3.175
 74
    0
  0
LTYPE
  5
39
330
5
100
AcDbSymbolTableRecord
100
AcDbLinetypeTableRecord
  2
DASHEDX2
 70
    0
  3
Dashed (2x) ____  ____  ____  ____  ____  ___
 72
   65
 73
    2
 40
38.09999999999999
 49
25.4
 74
    0
 49
-12.7
 74
    0
  0
LTYPE
  5
3A
330
5
100
AcDbSymbolTableRecord
100
AcDbLinetypeTableRecord
  2
DASHDOT
 70
    0
  3
Dash dot __ . __ . __ . __ . __ . __ . __ . __
 72
   65
 73
    4
 40
25.4
 49
12.7
 74
    0
 49
-6.35
 74
    0
 49
0
 74
    0
 49
-6.35
 74
    0
  0
LTYPE
  5
3B
330
5
100
AcDbSymbolTableRecord
100
AcDbLinetypeTableRecord
  2
DASHDOTTINY
 70
    0
  3
Dash dot (.15x) _._._._._._._._._._._._._._._.
 72
   65
 73
    4
 40
3.81
 49
1.905
 74
    0
 49
-0.9525
 74
    0
 49
0
 74
    0
 49
-0.9525
 74
    0
  0
LTYPE
  5
3C
330
5
100
AcDbSymbolTableRecord
100
AcDbLinetypeTableRecord
  2
DASHDOT2
 70
    0
  3
Dash dot (.5x) _._._._._._._._._._._._._._._.
 72
   65
 73
    4
 40
12.7
 49
6.35
 74
    0
 49
-3.175
 74
    0
 49
0
 74
    0
 49
-3.175
 74
    0
  0
LTYPE
  5
3D
330
5
100
AcDbSymbolTableRecord
100
AcDbLinetypeTableRecord
  2
DASHDOTX2
 70
    0
  3
Dash dot (2x) ____  .  ____  .  ____  .  ___
 72
   65
 73
    4
 40
50.8
 49
25.4
 74
    0
 49
-12.7
 74
    0
 49
0
 74
    0
 49
-12.7
 74
    0
  0
LTYPE
  5
3E
330
5
100
AcDbSymbolTableRecord
100
AcDbLinetypeTableRecord
  2
DIVIDE
 70
    0
  3
Divide ____ . . ____ . . ____ . . ____ . . ____
 72
   65
 73
    6
 40
31.75
 49
12.7
 74
    0
 49
-6.35
 74
    0
 49
0
 74
    0
 49
-6.35
 74
    0
 49
0
 74
    0
 49
-6.35
 74
    0
  0
LTYPE
  5
3F
330
5
100
AcDbSymbolTableRecord
100
AcDbLinetypeTableRecord
  2
DIVIDETINY
 70
    0
  3
Divide (.15x) __..__..__..__..__..__..__..__.._
 72
   65
 73
    6
 40
4.7625
 49
1.905
 74
    0
 49
-0.9525
 74
    0
 49
0
 74
    0
 49
-0.9525
 74
    0
 49
0
 74
    0
 49
-0.9525
 74
    0
  0
LTYPE
  5
40
330
5
100
AcDbSymbolTableRecord
100
AcDbLinetypeTableRecord
  2
DIVIDE2
 70
    0
  3
Divide (.5x) __..__..__..__..__..__..__..__.._
 72
   65
 73
    6
 40
15.875
 49
6.35
 74
    0
 49
-3.175
 74
    0
 49
0
 74
    0
 49
-3.175
 74
    0
 49
0
 74
    0
 49
-3.175
 74
    0
  0
LTYPE
  5
41
330
5
100
AcDbSymbolTableRecord
100
AcDbLinetypeTableRecord
  2
DIVIDEX2
 70
    0
  3
Divide (2x) ________  .  .  ________  .  .  _
 72
   65
 73
    6
 40
63.5
 49
25.4
 74
    0
 49
-12.7
 74
    0
 49
0
 74
    0
 49
-12.7
 74
    0
 49
0
 74
    0
 49
-12.7
 74
    0
  0
LTYPE
  5
42
330
5
100
AcDbSymbolTableRecord
100
AcDbLinetypeTableRecord
  2
BORDER
 70
    0
  3
Border __ __ . __ __ . __ __ . __ __ . __ __ .
 72
   65
 73
    6
 40
44.45
 49
12.7
 74
    0
 49
-6.35
 74
    0
 49
12.7
 74
    0
 49
-6.35
 74
    0
 49
0
 74
    0
 49
-6.35
 74
    0
  0
LTYPE
  5
43
330
5
100
AcDbSymbolTableRecord
100
AcDbLinetypeTableRecord
  2
BORDERTINY
 70
    0
  3
Border (.15x) __.__.__.__.__.__.__.__.__.__.__.
 72
   65
 73
    6
 40
6.6675
 49
1.905
 74
    0
 49
-0.9525
 74
    0
 49
1.905
 74
    0
 49
-0.9525
 74
    0
 49
0
 74
    0
 49
-0.9525
 74
    0
  0
LTYPE
  5
44
330
5
100
AcDbSymbolTableRecord
100
AcDbLinetypeTableRecord
  2
BORDER2
 70
    0
  3
Border (.5x) __.__.__.__.__.__.__.__.__.__.__.
 72
   65
 73
    6
 40
22.225
 49
6.35
 74
    0
 49
-3.175
 74
    0
 49
6.35
 74
    0
 49
-3.175
 74
    0
 49
0
 74
    0
 49
-3.175
 74
    0
  0
LTYPE
  5
45
330
5
100
AcDbSymbolTableRecord
100
AcDbLinetypeTableRecord
  2
BORDERX2
 70
    0
  3
Border (2x) ____  ____  .  ____  ____  .  ___
 72
   65
 73
    6
 40
88.89999999999999
 49
25.4
 74
    0
 49
-12.7
 74
    0
 49
25.4
 74
    0
 49
-12.7
 74
    0
 49
0
 74
    0
 49
-12.7
 74
    0
  0
LTYPE
  5
46
330
5
100
AcDbSymbolTableRecord
100
AcDbLinetypeTableRecord
  2
CENTER
 70
    0
  3
Center ____ _ ____ _ ____ _ ____ _ ____ _ ____
 72
   65
 73
    4
 40
50.8
 49
31.75
 74
    0
 49
-6.35
 74
    0
 49
6.35
 74
    0
 49
-6.35
 74
    0
  0
LTYPE
  5
47
330
5
100
AcDbSymbolTableRecord
100
AcDbLinetypeTableRecord
  2
CENTERTINY
 70
    0
  3
Center (.15x) ___ _ ___ _ ___ _ ___ _ ___ _ ___
 72
   65
 73
    4
 40
7.62
 49
4.7625
 74
    0
 49
-0.9525
 74
    0
 49
0.9525
 74
    0
 49
-0.9525
 74
    0
  0
LTYPE
  5
48
330
5
100
AcDbSymbolTableRecord
100
AcDbLinetypeTableRecord
  2
CENTER2
 70
    0
  3
Center (.5x) ___ _ ___ _ ___ _ ___ _ ___ _ ___
 72
   65
 73
    4
 40
28.575
 49
19.05
 74
    0
 49
-3.175
 74
    0
 49
3.175
 74
    0
 49
-3.175
 74
    0
  0
LTYPE
  5
49
330
5
100
AcDbSymbolTableRecord
100
AcDbLinetypeTableRecord
  2
CENTERX2
 70
    0
  3
Center (2x) ________  __  ________  __  _____
 72
   65
 73
    4
 40
101.6
 49
63.5
 74
    0
 49
-12.7
 74
    0
 49
12.7
 74
    0
 49
-12.7
 74
    0
  0
ENDTAB
  0
TABLE
  2
LAYER
  5
2
330
0
100
AcDbSymbolTable
 70
    1
  0
LAYER
  5
10
330
2
100
AcDbSymbolTableRecord
100
AcDbLayerTableRecord
  2
0
 70
    0
 62
    7
  6
CONTINUOUS
370
   -3
390
F
  0
ENDTAB
  0
TABLE
  2
STYLE
  5
3
330
0
100
AcDbSymbolTable
 70
    3
  0
STYLE
  5
4A
330
2
100
AcDbSymbolTableRecord
100
AcDbTextStyleTableRecord
  2
Standard
 70
    0
 40
0
 41
1
 50
0
 71
    0
 42
1
  3
txt
  4

  0
ENDTAB
  0
TABLE
  2
VIEW
  5
6
330
0
100
AcDbSymbolTable
 70
    0
  0
ENDTAB
  0
TABLE
  2
UCS
  5
7
330
0
100
AcDbSymbolTable
 70
    0
  0
ENDTAB
  0
TABLE
  2
APPID
  5
9
330
0
100
AcDbSymbolTable
 70
    1
  0
APPID
  5
12
330
9
100
AcDbSymbolTableRecord
100
AcDbRegAppTableRecord
  2
ACAD
 70
    0
  0
APPID
  5
4B
330
9
100
AcDbSymbolTableRecord
100
AcDbRegAppTableRecord
  2
LibreCad
 70
    0
  0
ENDTAB
  0
TABLE
  2
DIMSTYLE
  5
A
330
0
100
AcDbSymbolTable
 70
    1
100
AcDbDimStyleTable
 71
    1
  0
DIMSTYLE
105
4C
330
A
100
AcDbSymbolTableRecord
100
AcDbDimStyleTableRecord
  2
Standard
 70
    0
 40
1
 41
2.5
 42
0.625
 43
0.38
 44
1.25
 45
0
 46
0
 47
0
 48
0
 49
1
140
2.5
141
0.09
142
0
143
25.4
144
1
145
0
146
1
147
0.625
148
0
 71
    0
 72
    0
 73
    0
 74
    1
 75
    0
 76
    0
 77
    0
 78
    1
 79
    0
170
    0
171
    2
172
    0
173
    0
174
    0
175
    0
176
    0
177
    0
178
    0
179
    2
271
    4
272
    4
273
    2
274
    2
275
    0
276
    0
277
    2
278
    0
279
    0
280
    0
281
    0
282
    0
283
    1
284
    0
285
    0
286
    0
288
    0
289
    3
340
standard
341

371
   -2
372
   -2
  0
ENDTAB
  0
TABLE
  2
BLOCK_RECORD
  5
1
330
0
100
AcDbSymbolTable
 70
    2
  0
BLOCK_RECORD
  5
1F
330
1
100
AcDbSymbolTableRecord
100
AcDbBlockTableRecord
  2
*Model_Space
 70
    0
280
    1
281
    0
  0
BLOCK_RECORD
  5
1E
330
1
100
AcDbSymbolTableRecord
100
AcDbBlockTableRecord
  2
*Paper_Space
 70
    0
280
    1
281
    0
  0
ENDTAB
  0
ENDSEC
  0
SECTION
  2
BLOCKS
  0
BLOCK
  5
20
330
1F
100
AcDbEntity
  8
0
100
AcDbBlockBegin
  2
*Model_Space
 70
    0
 10
0
 20
0
 30
0
  3
*Model_Space
  1

  0
ENDBLK
  5
21
330
1F
100
AcDbEntity
  8
0
100
AcDbBlockEnd
  0
BLOCK
  5
1C
330
1B
100
AcDbEntity
  8
0
100
AcDbBlockBegin
  2
*Paper_Space
 70
    0
 10
0
 20
0
 30
0
  3
*Paper_Space
  1

  0
ENDBLK
  5
1D
330
1F
100
AcDbEntity
  8
0
100
AcDbBlockEnd
  0
ENDSEC
  0
SECTION
  2
ENTITIES
  0
LWPOLYLINE
  5
4D
100
AcDbEntity
  8
0
  6
ByLayer
 62
  256
370
   -1
100
AcDbPolyline
 90
    8
 70
    1
 43
0
 10
40.62450000000005
 20
221.8632936956135
 10
40.62450000000005
 20
207.2622934000001
 42
0.4142135623731283
 10
41.12450000000004
 20
206.7622934000001
 10
54.12530000000005
 20
206.7622934000001
 42
0.4142135623731283
 10
54.62530000000005
 20
207.2622934000001
 10
54.62530000000005
 20
221.8632936956135
 42
0.4142135623731367
 10
54.12530000000005
 20
222.3632936956135
 10
41.12450000000004
 20
222.3632936956135
 42
0.4142135623731367
  0
LWPOLYLINE
  5
4E
100
AcDbEntity
  8
0
  6
ByLayer
 62
  256
370
   -1
100
AcDbPolyline
 90
   24
 70
    1
 43
0
 10
16.76987731145989
 20
108.875202675184
 10
16.52520000000003
 20
108.875202675184
 10
16.52520000000002
 20
112.3243068012208
 42
0.4142135623730909
 10
16.02520000000003
 20
112.8243068012208
 10
3.024500000000028
 20
112.8243068012208
 42
0.4142135623730919
 10
2.524500000000029
 20
112.3243068012208
 10
2.524500000000029
 20
97.72518963203133
 42
0.4142135623730961
 10
3.024500000000028
 20
97.2251896320313
 10
16.02520000000003
 20
97.2251896320313
 42
0.414213562373095
 10
16.52520000000002
 20
97.72518963203133
 10
16.52520000000003
 20
106.824797324816
 10
16.76987731145989
 20
106.824797324816
 42
0.6468061268054991
 10
21.33012268854019
 20
106.824797324816
 10
21.57450000000004
 20
106.824797324816
 10
21.57450000000004
 20
102.4862934379909
 42
0.4142135623730576
 10
22.07450000000005
 20
101.9862934379909
 10
35.07520000000004
 20
101.9862934379909
 42
0.4142135623730617
 10
35.57520000000004
 20
102.4862934379909
 10
35.57520000000004
 20
117.0872932390505
 42
0.4142135623730867
 10
35.07520000000004
 20
117.5872932390505
 10
22.07450000000005
 20
117.5872932390505
 42
0.4142135623730846
 10
21.57450000000005
 20
117.0872932390505
 10
21.57450000000004
 20
108.875202675184
 10
21.3301226885402
 20
108.875202675184
 42
0.6468061268054995
  0
LWPOLYLINE
  5
4F
100
AcDbEntity
  8
0
  6
ByLayer
 62
  256
370
   -1
100
AcDbPolyline
 90
    8
 70
    1
 43
0
 10
41.12450000000006
 20
187.7122887653321
 10
54.12530000000004
 20
187.7122887653321
 42
0.4142135623731159
 10
54.62530000000001
 20
188.2122887653321
 10
54.62530000000004
 20
202.8133116535156
 42
0.4142135623731367
 10
54.12530000000004
 20
203.3133116535157
 10
41.12450000000006
 20
203.3133116535157
 42
0.4142135623731367
 10
40.62450000000006
 20
202.8133116535156
 10
40.62450000000008
 20
188.2122887653321
 42
0.41421356237312
  0
LWPOLYLINE
  5
50
100
AcDbEntity
  8
0
  6
ByLayer
 62
  256
370
   -1
100
AcDbPolyline
 90
   12
 70
    1
 43
0
 10
40.62450000000001
 20
139.5116365473866
 10
40.35701567103328
 20
139.5116365473866
 42
4.008211468265071
 10
40.35701567103328
 20
137.1629502526135
 10
40.62450000000001
 20
137.1629502526135
 10
40.62450000000002
 20
131.0612934
 42
0.4142135623730992
 10
41.12450000000001
 20
130.5612934
 10
54.12530000000004
 20
130.5612934
 42
0.4142135623731117
 10
54.62530000000002
 20
131.0612934
 10
54.62530000000004
 20
145.6622870500605
 42
0.4142135623730659
 10
54.12530000000004
 20
146.1622870500605
 10
41.12450000000001
 20
146.1622870500605
 42
0.4142098426695332
 10
40.62450000004033
 20
145.6622934
  0
LWPOLYLINE
  5
51
100
AcDbEntity
  8
0
  6
ByLayer
 62
  256
370
   -1
100
AcDbPolyline
 90
    8
 70
    1
 43
0
 10
54.62530000000004
 20
226.3122934
 10
54.62530000000004
 20
240.9132980944643
 42
0.4142135623731283
 10
54.12530000000004
 20
241.4132980944643
 10
41.12450000000006
 20
241.4132980944643
 42
0.4142135623731283
 10
40.62450000000006
 20
240.9132980944643
 10
40.62450000000006
 20
226.3122934
 42
0.4142135623731367
 10
41.12450000000006
 20
225.8122934
 10
54.12530000000004
 20
225.8122934
 42
0.4142135623731367
  0
LWPOLYLINE
  5
52
100
AcDbEntity
  8
0
  6
ByLayer
 62
  256
370
   -1
100
AcDbPolyline
 90
    8
 70
    1
 43
0
 10
35.07520000000004
 20
155.6882811359375
 10
22.07450000000005
 20
155.6882811359375
 42
0.4142135623730929
 10
21.57450000000005
 20
155.1882811359375
 10
21.57450000000902
 20
140.5872934
 42
0.4142118081039335
 10
22.07450000000005
 20
140.0872963947266
 10
35.07520000000004
 20
140.0872963947266
 42
0.4142118081039314
 10
35.57519999999107
 20
140.5872934
 10
35.57520000000004
 20
155.1882811359375
 42
0.4142135623730909
  0
LWPOLYLINE
  5
53
100
AcDbEntity
  8
0
  6
ByLayer
 62
  256
370
   -1
100
AcDbPolyline
 90
    8
 70
    1
 43
0
 10
35.57520000000004
 20
121.5372937369163
 10
35.57520000000004
 20
136.1382934
 42
0.4142135623730825
 10
35.07520000000004
 20
136.6382934
 10
22.07450000000005
 20
136.6382934
 42
0.4142135623730805
 10
21.57450000000005
 20
136.1382934
 10
21.57450000000005
 20
121.5372937369163
 42
0.4142135623730971
 10
22.07450000000005
 20
121.0372937369162
 10
35.07520000000004
 20
121.0372937369162
 42
0.414213562373095
  0
LWPOLYLINE
  5
54
100
AcDbEntity
  8
0
  6
ByLayer
 62
  256
370
   -1
100
AcDbPolyline
 90
    8
 70
    1
 43
0
 10
35.07520000000007
 20
212.8382796100587
 10
22.07450000000005
 20
212.8382796100587
 42
0.4142135623730929
 10
21.57450000000004
 20
212.3382796100586
 10
21.57450000000222
 20
197.7372934
 42
0.414212701942333
 10
22.07450000000005
 20
197.2372948688477
 10
35.07520000000007
 20
197.2372948688477
 42
0.4142127019423371
 10
35.57519999999791
 20
197.7372934
 10
35.57520000000007
 20
212.3382796100586
 42
0.4142135623730867
  0
LWPOLYLINE
  5
55
100
AcDbEntity
  8
0
  6
ByLayer
 62
  256
370
   -1
100
AcDbPolyline
 90
    8
 70
    1
 43
0
 10
73.19990100000005
 20
243.3872934
 42
-0.4142135623730966
 10
76.19990100000004
 20
240.3872934
 10
76.19990100000003
 20
3.000000000000004
 42
-0.4142135623730979
 10
73.19990100000003
 20
0
 10
3.000000000000005
 20
-3.996802888650564e-015
 42
-0.4142135623730955
 10
0
 20
3.000000000000008
 10
7.904787935331115e-014
 20
240.3872934
 42
-0.4142135623730946
 10
3.000000000000078
 20
243.3872934
  0
LINE
  5
56
100
AcDbEntity
  8
0
  6
ByLayer
 62
  256
370
   -1
100
AcDbLine
 10
40.62450000000003
 20
112.0112934
 11
40.62450000000002
 21
126.6122934
  0
ARC
  5
57
100
AcDbEntity
  8
0
  6
ByLayer
 62
  256
370
   -1
100
AcDbCircle
 10
41.12450000000003
 20
126.6122934
 40
0.5000000000000071
100
AcDbArc
 50
90
 51
180
  0
LINE
  5
58
100
AcDbEntity
  8
0
  6
ByLayer
 62
  256
370
   -1
100
AcDbLine
 10
41.12450000000003
 20
127.1122934
 11
54.12530000000004
 21
127.1122934
  0
ARC
  5
59
100
AcDbEntity
  8
0
  6
ByLayer
 62
  256
370
   -1
100
AcDbCircle
 10
54.12530000000004
 20
126.6122934
 40
0.4999999999999982
100
AcDbArc
 50
0
 51
90
  0
LINE
  5
5A
100
AcDbEntity
  8
0
  6
ByLayer
 62
  256
370
   -1
100
AcDbLine
 10
54.62530000000004
 20
126.6122934
 11
54.62530000000005
 21
112.0112934
  0
ARC
  5
5B
100
AcDbEntity
  8
0
  6
ByLayer
 62
  256
370
   -1
100
AcDbCircle
 10
54.12530000000004
 20
112.0112934
 40
0.5000044210449239
100
AcDbArc
 50
-90
 51
0
  0
LINE
  5
5C
100
AcDbEntity
  8
0
  6
ByLayer
 62
  256
370
   -1
100
AcDbLine
 10
54.12530000000004
 20
111.5112889789551
 11
41.12450000000003
 21
111.5112889789551
  0
ARC
  5
5D
100
AcDbEntity
  8
0
  6
ByLayer
 62
  256
370
   -1
100
AcDbCircle
 10
41.12450000000003
 20
112.0112934
 40
0.4999999999999982
100
AcDbArc
 50
180
 51
270
  0
LINE
  5
5E
100
AcDbEntity
  8
0
  6
ByLayer
 62
  256
370
   -1
100
AcDbLine
 10
2.524500000000032
 20
116.7752934
 11
2.524500000000032
 21
131.3742934
  0
ARC
  5
5F
100
AcDbEntity
  8
0
  6
ByLayer
 62
  256
370
   -1
100
AcDbCircle
 10
3.024500000000035
 20
131.3742934
 40
0.5000000000000071
100
AcDbArc
 50
90.00000000000006
 51
180
  0
LINE
  5
60
100
AcDbEntity
  8
0
  6
ByLayer
 62
  256
370
   -1
100
AcDbLine
 10
3.024500000000034
 20
131.8742934
 11
16.02520000000003
 21
131.8742903980225
  0
ARC
  5
61
100
AcDbEntity
  8
0
  6
ByLayer
 62
  256
370
   -1
100
AcDbCircle
 10
16.02520000000003
 20
131.3742934
 40
0.5000000000000004
100
AcDbArc
 50
0
 51
90
  0
LINE
  5
62
100
AcDbEntity
  8
0
  6
ByLayer
 62
  256
370
   -1
100
AcDbLine
 10
16.52520000000003
 20
131.3742934
 11
16.52520000000003
 21
116.7752934
  0
ARC
  5
63
100
AcDbEntity
  8
0
  6
ByLayer
 62
  256
370
   -1
100
AcDbCircle
 10
16.02520000000003
 20
116.7752934
 40
0.4999959218993943
100
AcDbArc
 50
-90
 51
0
  0
LINE
  5
64
100
AcDbEntity
  8
0
  6
ByLayer
 62
  256
370
   -1
100
AcDbLine
 10
16.02520000000003
 20
116.2752974781006
 11
3.024500000000032
 21
116.2752974781006
  0
ARC
  5
65
100
AcDbEntity
  8
0
  6
ByLayer
 62
  256
370
   -1
100
AcDbCircle
 10
3.024500000000032
 20
116.7752934
 40
0.5000000000000004
100
AcDbArc
 50
180
 51
270
  0
LINE
  5
66
100
AcDbEntity
  8
0
  6
ByLayer
 62
  256
370
   -1
100
AcDbLine
 10
2.524500000000032
 20
135.8252934
 11
2.524500000000032
 21
150.4242934
  0
ARC
  5
67
100
AcDbEntity
  8
0
  6
ByLayer
 62
  256
370
   -1
100
AcDbCircle
 10
3.024500000000035
 20
150.4242934
 40
0.5000000000000071
100
AcDbArc
 50
90.00000000000006
 51
180
  0
LINE
  5
68
100
AcDbEntity
  8
0
  6
ByLayer
 62
  256
370
   -1
100
AcDbLine
 10
3.024500000000034
 20
150.9242934
 11
16.02520000000003
 21
150.9242934
  0
ARC
  5
69
100
AcDbEntity
  8
0
  6
ByLayer
 62
  256
370
   -1
100
AcDbCircle
 10
16.02520000000003
 20
150.4242934
 40
0.5000000000000004
100
AcDbArc
 50
0
 51
90
  0
LINE
  5
6A
100
AcDbEntity
  8
0
  6
ByLayer
 62
  256
370
   -1
100
AcDbLine
 10
16.52520000000003
 20
150.4242934
 11
16.52520000000003
 21
135.8252934
  0
ARC
  5
6B
100
AcDbEntity
  8
0
  6
ByLayer
 62
  256
370
   -1
100
AcDbCircle
 10
16.02520000000003
 20
135.8252934
 40
0.5000027883544966
100
AcDbArc
 50
-90
 51
0
  0
LINE
  5
6C
100
AcDbEntity
  8
0
  6
ByLayer
 62
  256
370
   -1
100
AcDbLine
 10
16.02520000000003
 20
135.3252906116455
 11
3.024500000000032
 21
135.3252906116455
  0
ARC
  5
6D
100
AcDbEntity
  8
0
  6
ByLayer
 62
  256
370
   -1
100
AcDbCircle
 10
3.024500000000032
 20
135.8252934
 40
0.5000000000000004
100
AcDbArc
 50
180
 51
270
  0
LINE
  5
6E
100
AcDbEntity
  8
0
  6
ByLayer
 62
  256
370
   -1
100
AcDbLine
 10
40.62450000000003
 20
150.1112934000001
 11
40.62450000000002
 21
164.7132934000001
  0
ARC
  5
6F
100
AcDbEntity
  8
0
  6
ByLayer
 62
  256
370
   -1
100
AcDbCircle
 10
41.12450000000003
 20
164.7132934000001
 40
0.5000000000000071
100
AcDbArc
 50
90
 51
180
  0
LINE
  5
70
100
AcDbEntity
  8
0
  6
ByLayer
 62
  256
370
   -1
100
AcDbLine
 10
41.12450000000003
 20
165.2132934000001
 11
54.12530000000004
 21
165.2132899555176
  0
ARC
  5
71
100
AcDbEntity
  8
0
  6
ByLayer
 62
  256
370
   -1
100
AcDbCircle
 10
54.12530000000004
 20
164.7132934000001
 40
0.4999999999999982
100
AcDbArc
 50
0
 51
90
  0
LINE
  5
72
100
AcDbEntity
  8
0
  6
ByLayer
 62
  256
370
   -1
100
AcDbLine
 10
54.62530000000004
 20
164.7132934000001
 11
54.62529908046879
 21
150.1112934000001
  0
ARC
  5
73
100
AcDbEntity
  8
0
  6
ByLayer
 62
  256
370
   -1
100
AcDbCircle
 10
54.12530000000004
 20
150.1112934000001
 40
0.4999990804687471
100
AcDbArc
 50
-90
 51
0
  0
LINE
  5
74
100
AcDbEntity
  8
0
  6
ByLayer
 62
  256
370
   -1
100
AcDbLine
 10
54.12530000000004
 20
149.6112943195313
 11
41.12450000000003
 21
149.6112934000001
  0
ARC
  5
75
100
AcDbEntity
  8
0
  6
ByLayer
 62
  256
370
   -1
100
AcDbCircle
 10
41.12450000000003
 20
150.1112934000001
 40
0.4999999999999982
100
AcDbArc
 50
180
 51
270
  0
LINE
  5
76
100
AcDbEntity
  8
0
  6
ByLayer
 62
  256
370
   -1
100
AcDbLine
 10
2.524500000000032
 20
154.8752934
 11
2.524500000000032
 21
169.4742934
  0
ARC
  5
77
100
AcDbEntity
  8
0
  6
ByLayer
 62
  256
370
   -1
100
AcDbCircle
 10
3.024500000000035
 20
169.4742934
 40
0.5000000000000071
100
AcDbArc
 50
90.00000000000006
 51
180
  0
LINE
  5
78
100
AcDbEntity
  8
0
  6
ByLayer
 62
  256
370
   -1
100
AcDbLine
 10
3.024500000000034
 20
169.9742934
 11
16.02520000000003
 21
169.9742862018556
  0
ARC
  5
79
100
AcDbEntity
  8
0
  6
ByLayer
 62
  256
370
   -1
100
AcDbCircle
 10
16.02520000000003
 20
169.4742934
 40
0.5000000000000004
100
AcDbArc
 50
0
 51
90
  0
LINE
  5
7A
100
AcDbEntity
  8
0
  6
ByLayer
 62
  256
370
   -1
100
AcDbLine
 10
16.52520000000003
 20
169.4742934
 11
16.52520011806643
 21
154.8752934
  0
ARC
  5
7B
100
AcDbEntity
  8
0
  6
ByLayer
 62
  256
370
   -1
100
AcDbCircle
 10
16.02520000000003
 20
154.8752934
 40
0.5000001180663993
100
AcDbArc
 50
-90
 51
0
  0
LINE
  5
7C
100
AcDbEntity
  8
0
  6
ByLayer
 62
  256
370
   -1
100
AcDbLine
 10
16.02520000000003
 20
154.3752932819336
 11
3.02450000000003
 21
154.3752934
  0
ARC
  5
7D
100
AcDbEntity
  8
0
  6
ByLayer
 62
  256
370
   -1
100
AcDbCircle
 10
3.024500000000032
 20
154.8752934
 40
0.5000000000000004
100
AcDbArc
 50
180
 51
269.9999999999997
  0
LINE
  5
7E
100
AcDbEntity
  8
0
  6
ByLayer
 62
  256
370
   -1
100
AcDbLine
 10
21.57450000000004
 20
159.6372934
 11
21.57450000000004
 21
174.2382934
  0
ARC
  5
7F
100
AcDbEntity
  8
0
  6
ByLayer
 62
  256
370
   -1
100
AcDbCircle
 10
22.07450000000005
 20
174.2382934
 40
0.5000000000000071
100
AcDbArc
 50
90
 51
180
  0
LINE
  5
80
100
AcDbEntity
  8
0
  6
ByLayer
 62
  256
370
   -1
100
AcDbLine
 10
22.07450000000005
 20
174.7382934000001
 11
35.07520000000004
 21
174.7382934000001
  0
ARC
  5
81
100
AcDbEntity
  8
0
  6
ByLayer
 62
  256
370
   -1
100
AcDbCircle
 10
35.07520000000004
 20
174.2382934
 40
0.4999999999999982
100
AcDbArc
 50
0
 51
90
  0
LINE
  5
82
100
AcDbEntity
  8
0
  6
ByLayer
 62
  256
370
   -1
100
AcDbLine
 10
35.57520000000004
 20
174.2382934
 11
35.57520000000004
 21
159.6372934
  0
ARC
  5
83
100
AcDbEntity
  8
0
  6
ByLayer
 62
  256
370
   -1
100
AcDbCircle
 10
35.07520000000004
 20
159.6372934
 40
0.5000038717285094
100
AcDbArc
 50
-90
 51
0
  0
LINE
  5
84
100
AcDbEntity
  8
0
  6
ByLayer
 62
  256
370
   -1
100
AcDbLine
 10
35.07520000000004
 20
159.1372895282715
 11
22.07450000000005
 21
159.1372895282715
  0
ARC
  5
85
100
AcDbEntity
  8
0
  6
ByLayer
 62
  256
370
   -1
100
AcDbCircle
 10
22.07450000000005
 20
159.6372934
 40
0.5000000000000027
100
AcDbArc
 50
180
 51
270
  0
LINE
  5
86
100
AcDbEntity
  8
0
  6
ByLayer
 62
  256
370
   -1
100
AcDbLine
 10
40.62450000000006
 20
169.1612934
 11
40.62450000000005
 21
183.7632934000001
  0
ARC
  5
87
100
AcDbEntity
  8
0
  6
ByLayer
 62
  256
370
   -1
100
AcDbCircle
 10
41.12450000000006
 20
183.7632934000001
 40
0.5000000000000071
100
AcDbArc
 50
90
 51
180
  0
LINE
  5
88
100
AcDbEntity
  8
0
  6
ByLayer
 62
  256
370
   -1
100
AcDbLine
 10
41.12450000000006
 20
184.2632934000001
 11
54.12530000000004
 21
184.2632994464845
  0
ARC
  5
89
100
AcDbEntity
  8
0
  6
ByLayer
 62
  256
370
   -1
100
AcDbCircle
 10
54.12530000000004
 20
183.7632934000001
 40
0.4999999999999982
100
AcDbArc
 50
0
 51
90
  0
LINE
  5
8A
100
AcDbEntity
  8
0
  6
ByLayer
 62
  256
370
   -1
100
AcDbLine
 10
54.62530000000004
 20
183.7632934000001
 11
54.62529776821292
 21
169.1612934
  0
ARC
  5
8B
100
AcDbEntity
  8
0
  6
ByLayer
 62
  256
370
   -1
100
AcDbCircle
 10
54.12530000000004
 20
169.1612934
 40
0.4999977682128787
100
AcDbArc
 50
-90
 51
0
  0
LINE
  5
8C
100
AcDbEntity
  8
0
  6
ByLayer
 62
  256
370
   -1
100
AcDbLine
 10
54.12530000000004
 20
168.6612956317872
 11
41.12450000000006
 21
168.6612956317871
  0
ARC
  5
8D
100
AcDbEntity
  8
0
  6
ByLayer
 62
  256
370
   -1
100
AcDbCircle
 10
41.12450000000006
 20
169.1612934
 40
0.4999999999999982
100
AcDbArc
 50
180
 51
270
  0
LINE
  5
8E
100
AcDbEntity
  8
0
  6
ByLayer
 62
  256
370
   -1
100
AcDbLine
 10
2.524500000000032
 20
173.9252934000001
 11
2.524500000000032
 21
188.5242934
  0
ARC
  5
8F
100
AcDbEntity
  8
0
  6
ByLayer
 62
  256
370
   -1
100
AcDbCircle
 10
3.024500000000035
 20
188.5242934
 40
0.5000000000000071
100
AcDbArc
 50
90.00000000000006
 51
180
  0
LINE
  5
90
100
AcDbEntity
  8
0
  6
ByLayer
 62
  256
370
   -1
100
AcDbLine
 10
3.024500000000034
 20
189.0242934
 11
16.02520000000005
 21
189.0242984088868
  0
ARC
  5
91
100
AcDbEntity
  8
0
  6
ByLayer
 62
  256
370
   -1
100
AcDbCircle
 10
16.02520000000005
 20
188.5242934
 40
0.5000000000000004
100
AcDbArc
 50
0
 51
90
  0
LINE
  5
92
100
AcDbEntity
  8
0
  6
ByLayer
 62
  256
370
   -1
100
AcDbLine
 10
16.52520000000005
 20
188.5242934
 11
16.52520000000004
 21
173.9252934000001
  0
ARC
  5
93
100
AcDbEntity
  8
0
  6
ByLayer
 62
  256
370
   -1
100
AcDbCircle
 10
16.02520000000004
 20
173.9252934000001
 40
0.5000069845214483
100
AcDbArc
 50
-90
 51
0
  0
LINE
  5
94
100
AcDbEntity
  8
0
  6
ByLayer
 62
  256
370
   -1
100
AcDbLine
 10
16.02520000000004
 20
173.4252864154786
 11
3.024500000000032
 21
173.4252864154786
  0
ARC
  5
95
100
AcDbEntity
  8
0
  6
ByLayer
 62
  256
370
   -1
100
AcDbCircle
 10
3.024500000000032
 20
173.9252934000001
 40
0.5000000000000004
100
AcDbArc
 50
180
 51
270
  0
LINE
  5
96
100
AcDbEntity
  8
0
  6
ByLayer
 62
  256
370
   -1
100
AcDbLine
 10
21.57450000000004
 20
178.6872934
 11
21.57450000000004
 21
193.2882934
  0
ARC
  5
97
100
AcDbEntity
  8
0
  6
ByLayer
 62
  256
370
   -1
100
AcDbCircle
 10
22.07450000000005
 20
193.2882934
 40
0.5000000000000071
100
AcDbArc
 50
90
 51
180
  0
LINE
  5
98
100
AcDbEntity
  8
0
  6
ByLayer
 62
  256
370
   -1
100
AcDbLine
 10
22.07450000000005
 20
193.7882934000001
 11
35.07520000000004
 21
193.7882864765137
  0
ARC
  5
99
100
AcDbEntity
  8
0
  6
ByLayer
 62
  256
370
   -1
100
AcDbCircle
 10
35.07520000000004
 20
193.2882934
 40
0.4999999999999982
100
AcDbArc
 50
0
 51
90
  0
LINE
  5
9A
100
AcDbEntity
  8
0
  6
ByLayer
 62
  256
370
   -1
100
AcDbLine
 10
35.57520000000004
 20
193.2882934
 11
35.57520000000004
 21
178.6872934
  0
ARC
  5
9B
100
AcDbEntity
  8
0
  6
ByLayer
 62
  256
370
   -1
100
AcDbCircle
 10
35.07520000000004
 20
178.6872934
 40
0.499991664697248
100
AcDbArc
 50
-90
 51
0
  0
LINE
  5
9C
100
AcDbEntity
  8
0
  6
ByLayer
 62
  256
370
   -1
100
AcDbLine
 10
35.07520000000004
 20
178.1873017353028
 11
22.07450000000005
 21
178.1873017353027
  0
ARC
  5
9D
100
AcDbEntity
  8
0
  6
ByLayer
 62
  256
370
   -1
100
AcDbCircle
 10
22.07450000000005
 20
178.6872934
 40
0.5000000000000027
100
AcDbArc
 50
180
 51
270
  0
LINE
  5
9E
100
AcDbEntity
  8
0
  6
ByLayer
 62
  256
370
   -1
100
AcDbLine
 10
2.524500000000049
 20
192.9752934000001
 11
2.524500000000049
 21
207.5742934
  0
ARC
  5
9F
100
AcDbEntity
  8
0
  6
ByLayer
 62
  256
370
   -1
100
AcDbCircle
 10
3.024500000000053
 20
207.5742934
 40
0.5000000000000071
100
AcDbArc
 50
90.00000000000006
 51
180
  0
LINE
  5
A0
100
AcDbEntity
  8
0
  6
ByLayer
 62
  256
370
   -1
100
AcDbLine
 10
3.024500000000052
 20
208.0742934
 11
16.02520000000005
 21
208.0743013425783
  0
ARC
  5
A1
100
AcDbEntity
  8
0
  6
ByLayer
 62
  256
370
   -1
100
AcDbCircle
 10
16.02520000000005
 20
207.5742934
 40
0.5000000000000004
100
AcDbArc
 50
0
 51
90
  0
LINE
  5
A2
100
AcDbEntity
  8
0
  6
ByLayer
 62
  256
370
   -1
100
AcDbLine
 10
16.52520000000005
 20
207.5742934
 11
16.52520000000004
 21
192.9752934000001
  0
ARC
  5
A3
100
AcDbEntity
  8
0
  6
ByLayer
 62
  256
370
   -1
100
AcDbCircle
 10
16.02520000000004
 20
192.9752934000001
 40
0.4999947774901869
100
AcDbArc
 50
-90
 51
0
  0
LINE
  5
A4
100
AcDbEntity
  8
0
  6
ByLayer
 62
  256
370
   -1
100
AcDbLine
 10
16.02520000000004
 20
192.4752986225099
 11
3.02450000000005
 21
192.4752986225099
  0
ARC
  5
A5
100
AcDbEntity
  8
0
  6
ByLayer
 62
  256
370
   -1
100
AcDbCircle
 10
3.02450000000005
 20
192.9752934000001
 40
0.5000000000000004
100
AcDbArc
 50
180
 51
270
  0
LINE
  5
A6
100
AcDbEntity
  8
0
  6
ByLayer
 62
  256
370
   -1
100
AcDbLine
 10
21.57450000000006
 20
221.5502934
 11
21.57450000000004
 21
236.1492934
  0
ARC
  5
A7
100
AcDbEntity
  8
0
  6
ByLayer
 62
  256
370
   -1
100
AcDbCircle
 10
22.07450000000005
 20
236.1492934
 40
0.5000000000000071
100
AcDbArc
 50
90
 51
180
  0
LINE
  5
A8
100
AcDbEntity
  8
0
  6
ByLayer
 62
  256
370
   -1
100
AcDbLine
 10
22.07450000000005
 20
236.6492934
 11
35.07520000000007
 21
236.6492998166993
  0
ARC
  5
A9
100
AcDbEntity
  8
0
  6
ByLayer
 62
  256
370
   -1
100
AcDbCircle
 10
35.07520000000007
 20
236.1492934
 40
0.4999999999999982
100
AcDbArc
 50
0
 51
90
  0
LINE
  5
AA
100
AcDbEntity
  8
0
  6
ByLayer
 62
  256
370
   -1
100
AcDbLine
 10
35.57520000000007
 20
236.1492934
 11
35.57520000000007
 21
221.5502934
  0
ARC
  5
AB
100
AcDbEntity
  8
0
  6
ByLayer
 62
  256
370
   -1
100
AcDbCircle
 10
35.07520000000007
 20
221.5502934
 40
0.4999955404296585
100
AcDbArc
 50
-90
 51
0
  0
LINE
  5
AC
100
AcDbEntity
  8
0
  6
ByLayer
 62
  256
370
   -1
100
AcDbLine
 10
35.07520000000007
 20
221.0502978595703
 11
22.07450000000005
 21
221.0502978595704
  0
ARC
  5
AD
100
AcDbEntity
  8
0
  6
ByLayer
 62
  256
370
   -1
100
AcDbCircle
 10
22.07450000000005
 20
221.5502934
 40
0.4999999999999938
100
AcDbArc
 50
180
 51
270
  0
LINE
  5
AE
100
AcDbEntity
  8
0
  6
ByLayer
 62
  256
370
   -1
100
AcDbLine
 10
12.0245000000003
 20
219.1692934
 11
12.0245000000003
 21
219.4692915975881
  0
LINE
  5
AF
100
AcDbEntity
  8
0
  6
ByLayer
 62
  256
370
   -1
100
AcDbLine
 10
12.0245000000003
 20
219.4692915975881
 11
7.024500000000291
 21
219.4692915975881
  0
LINE
  5
B0
100
AcDbEntity
  8
0
  6
ByLayer
 62
  256
370
   -1
100
AcDbLine
 10
7.024500000000291
 20
219.4692915975881
 11
7.0245000000003
 21
219.1692934
  0
ARC
  5
B1
100
AcDbEntity
  8
0
  6
ByLayer
 62
  256
370
   -1
100
AcDbCircle
 10
6.524500000000293
 20
219.1692934
 40
0.5000000000000071
100
AcDbArc
 50
-90
 51
0
  0
LINE
  5
B2
100
AcDbEntity
  8
0
  6
ByLayer
 62
  256
370
   -1
100
AcDbLine
 10
6.524500000000293
 20
218.6692934
 11
3.024500000000068
 21
218.6692874835938
  0
ARC
  5
B3
100
AcDbEntity
  8
0
  6
ByLayer
 62
  256
370
   -1
100
AcDbCircle
 10
3.024500000000068
 20
219.1692934
 40
0.4999999999999999
100
AcDbArc
 50
180
 51
270
  0
LINE
  5
B4
100
AcDbEntity
  8
0
  6
ByLayer
 62
  256
370
   -1
100
AcDbLine
 10
2.524500000000068
 20
219.1692934
 11
2.524500000000067
 21
233.7682934
  0
ARC
  5
B5
100
AcDbEntity
  8
0
  6
ByLayer
 62
  256
370
   -1
100
AcDbCircle
 10
3.02450000000007
 20
233.7682934
 40
0.5000000000000071
100
AcDbArc
 50
90.00000000000006
 51
180
  0
LINE
  5
B6
100
AcDbEntity
  8
0
  6
ByLayer
 62
  256
370
   -1
100
AcDbLine
 10
3.02450000000007
 20
234.2682934
 11
6.524500000000293
 21
234.2682934
  0
ARC
  5
B7
100
AcDbEntity
  8
0
  6
ByLayer
 62
  256
370
   -1
100
AcDbCircle
 10
6.524500000000293
 20
233.7682934
 40
0.5000000000000004
100
AcDbArc
 50
0
 51
90
  0
LINE
  5
B8
100
AcDbEntity
  8
0
  6
ByLayer
 62
  256
370
   -1
100
AcDbLine
 10
7.024500000000293
 20
233.7682934
 11
7.024500000000291
 21
233.4682927533552
  0
LINE
  5
B9
100
AcDbEntity
  8
0
  6
ByLayer
 62
  256
370
   -1
100
AcDbLine
 10
7.024500000000291
 20
233.4682927533552
 11
12.02450000000029
 21
233.4682927533552
  0
LINE
  5
BA
100
AcDbEntity
  8
0
  6
ByLayer
 62
  256
370
   -1
100
AcDbLine
 10
12.02450000000029
 20
233.4682927533552
 11
12.02450000000029
 21
233.7682934
  0
ARC
  5
BB
100
AcDbEntity
  8
0
  6
ByLayer
 62
  256
370
   -1
100
AcDbCircle
 10
12.5245000000003
 20
233.7682934
 40
0.5000000000000071
100
AcDbArc
 50
90
 51
180
  0
LINE
  5
BC
100
AcDbEntity
  8
0
  6
ByLayer
 62
  256
370
   -1
100
AcDbLine
 10
12.5245000000003
 20
234.2682934
 11
16.02520000000006
 21
234.268291298291
  0
ARC
  5
BD
100
AcDbEntity
  8
0
  6
ByLayer
 62
  256
370
   -1
100
AcDbCircle
 10
16.02520000000006
 20
233.7682934
 40
0.5000000000000004
100
AcDbArc
 50
0
 51
90
  0
LINE
  5
BE
100
AcDbEntity
  8
0
  6
ByLayer
 62
  256
370
   -1
100
AcDbLine
 10
16.52520000000007
 20
233.7682934
 11
16.52520000000006
 21
219.1692934
  0
ARC
  5
BF
100
AcDbEntity
  8
0
  6
ByLayer
 62
  256
370
   -1
100
AcDbCircle
 10
16.02520000000006
 20
219.1692934
 40
0.500005916406252
100
AcDbArc
 50
-90
 51
0
  0
LINE
  5
C0
100
AcDbEntity
  8
0
  6
ByLayer
 62
  256
370
   -1
100
AcDbLine
 10
16.02520000000006
 20
218.6692874835937
 11
12.5245000000003
 21
218.6692934
  0
ARC
  5
C1
100
AcDbEntity
  8
0
  6
ByLayer
 62
  256
370
   -1
100
AcDbCircle
 10
12.5245000000003
 20
219.1692934
 40
0.4999999999999982
100
AcDbArc
 50
180
 51
270
  0
LWPOLYLINE
  5
C2
100
AcDbEntity
  8
0
  6
ByLayer
 62
  256
370
   -1
100
AcDbPolyline
 90
   20
 70
    1
 43
0
 10
69.17484999999999
 20
226.6124984000001
 10
69.17484999999999
 20
226.3124984000001
 42
0.4142135623731616
 10
69.67484999999999
 20
225.8124984
 10
73.17484999999998
 20
225.8124984
 42
0.4142135623731117
 10
73.67484999999999
 20
226.3124984000001
 10
73.67485000000001
 20
240.9124984
 42
0.4142135623731034
 10
73.17484999999998
 20
241.4124984
 10
69.67484999999999
 20
241.4124984
 42
0.4142135623731283
 10
69.17484999999999
 20
240.9124984
 10
69.17485000000001
 20
240.6124984
 10
64.17485000000001
 20
240.6124984
 10
64.17485000000001
 20
240.9124984
 42
0.4142135623730867
 10
63.67485000000001
 20
241.4124984
 10
60.17485
 20
241.4124984
 42
0.4142135623730409
 10
59.67484999999996
 20
240.9124984
 10
59.67485
 20
226.3124984000001
 42
0.4142135623731408
 10
60.17485
 20
225.8124984
 10
63.67484999999999
 20
225.8124984
 42
0.4142135623730659
 10
64.17484999999999
 20
226.3124984000001
 10
64.17484999999999
 20
226.6124984000001
  0
LWPOLYLINE
  5
C3
100
AcDbEntity
  8
0
  6
ByLayer
 62
  256
370
   -1
100
AcDbPolyline
 90
    8
 70
    1
 43
0
 10
59.67484999999996
 20
221.8624984
 10
59.67485
 20
207.2624984000001
 42
0.4142135623731408
 10
60.17485
 20
206.7624984
 10
73.17484999999998
 20
206.7624984
 42
0.4142135623731117
 10
73.67484999999999
 20
207.2624984000001
 10
73.67485000000001
 20
221.8624984
 42
0.4142135623731034
 10
73.17484999999998
 20
222.3624984
 10
60.17485
 20
222.3624984
 42
0.4142135623730409
  0
LINE
  5
C4
100
AcDbEntity
  8
0
  6
ByLayer
 62
  256
370
   -1
100
AcDbLine
 10
41.12450000000003
 20
108.0622934
 11
54.1253
 21
108.0622914813965
  0
ARC
  5
C5
100
AcDbEntity
  8
0
  6
ByLayer
 62
  256
370
   -1
100
AcDbCircle
 10
54.1253
 20
107.5622934
 40
0.4999999999999982
100
AcDbArc
 50
0
 51
90
  0
LINE
  5
C6
100
AcDbEntity
  8
0
  6
ByLayer
 62
  256
370
   -1
100
AcDbLine
 10
54.6253
 20
107.5622934
 11
54.62530000000001
 21
92.9612934
  0
ARC
  5
C7
100
AcDbEntity
  8
0
  6
ByLayer
 62
  256
370
   -1
100
AcDbCircle
 10
54.1253
 20
92.9612934
 40
0.4999972829834043
100
AcDbArc
 50
-90
 51
0
  0
LINE
  5
C8
100
AcDbEntity
  8
0
  6
ByLayer
 62
  256
370
   -1
100
AcDbLine
 10
54.1253
 20
92.4612961170166
 11
41.12450000000003
 21
92.4612961170166
  0
ARC
  5
C9
100
AcDbEntity
  8
0
  6
ByLayer
 62
  256
370
   -1
100
AcDbCircle
 10
41.12450000000003
 20
92.9612934
 40
0.4999999999999982
100
AcDbArc
 50
180
 51
270
  0
LINE
  5
CA
100
AcDbEntity
  8
0
  6
ByLayer
 62
  256
370
   -1
100
AcDbLine
 10
40.62450000000003
 20
92.9612934
 11
40.62450000000002
 21
107.5622934
  0
ARC
  5
CB
100
AcDbEntity
  8
0
  6
ByLayer
 62
  256
370
   -1
100
AcDbCircle
 10
41.12450000000003
 20
107.5622934
 40
0.5000000000000071
100
AcDbArc
 50
90
 51
180
  0
LINE
  5
CC
100
AcDbEntity
  8
0
  6
ByLayer
 62
  256
370
   -1
100
AcDbLine
 10
35.57520000000004
 20
98.03719340000002
 11
35.57520000000004
 21
83.4376934
  0
ARC
  5
CD
100
AcDbEntity
  8
0
  6
ByLayer
 62
  256
370
   -1
100
AcDbCircle
 10
35.07520000000004
 20
83.4376934
 40
0.500003386499035
100
AcDbArc
 50
-90
 51
0
  0
LINE
  5
CE
100
AcDbEntity
  8
0
  6
ByLayer
 62
  256
370
   -1
100
AcDbLine
 10
35.07520000000004
 20
82.93769001350097
 11
22.07450000000003
 21
82.93769001350098
  0
ARC
  5
CF
100
AcDbEntity
  8
0
  6
ByLayer
 62
  256
370
   -1
100
AcDbCircle
 10
22.07450000000003
 20
83.4376934
 40
0.4999999999999982
100
AcDbArc
 50
180
 51
270
  0
LINE
  5
D0
100
AcDbEntity
  8
0
  6
ByLayer
 62
  256
370
   -1
100
AcDbLine
 10
21.57450000000003
 20
83.4376934
 11
21.57450000000003
 21
98.03719340000002
  0
ARC
  5
D1
100
AcDbEntity
  8
0
  6
ByLayer
 62
  256
370
   -1
100
AcDbCircle
 10
22.07450000000003
 20
98.03719340000002
 40
0.5000000000000071
100
AcDbArc
 50
90
 51
180
  0
LINE
  5
D2
100
AcDbEntity
  8
0
  6
ByLayer
 62
  256
370
   -1
100
AcDbLine
 10
22.07450000000003
 20
98.53719340000004
 11
35.07520000000004
 21
98.53719001044924
  0
ARC
  5
D3
100
AcDbEntity
  8
0
  6
ByLayer
 62
  256
370
   -1
100
AcDbCircle
 10
35.07520000000004
 20
98.03719340000002
 40
0.4999999999999982
100
AcDbArc
 50
0
 51
90
  0
LINE
  5
D4
100
AcDbEntity
  8
0
  6
ByLayer
 62
  256
370
   -1
100
AcDbLine
 10
16.52520000000003
 20
93.2746934
 11
16.52520000000003
 21
78.6751934
  0
ARC
  5
D5
100
AcDbEntity
  8
0
  6
ByLayer
 62
  256
370
   -1
100
AcDbCircle
 10
16.02520000000003
 20
78.6751934
 40
0.4999969015136596
100
AcDbArc
 50
-90
 51
0
  0
LINE
  5
D6
100
AcDbEntity
  8
0
  6
ByLayer
 62
  256
370
   -1
100
AcDbLine
 10
16.02520000000003
 20
78.17519649848634
 11
3.024500000000032
 21
78.17519649848634
  0
ARC
  5
D7
100
AcDbEntity
  8
0
  6
ByLayer
 62
  256
370
   -1
100
AcDbCircle
 10
3.024500000000032
 20
78.6751934
 40
0.4999999999999999
100
AcDbArc
 50
180
 51
270
  0
LINE
  5
D8
100
AcDbEntity
  8
0
  6
ByLayer
 62
  256
370
   -1
100
AcDbLine
 10
2.524500000000032
 20
78.6751934
 11
2.524500000000032
 21
93.2746934
  0
ARC
  5
D9
100
AcDbEntity
  8
0
  6
ByLayer
 62
  256
370
   -1
100
AcDbCircle
 10
3.024500000000035
 20
93.2746934
 40
0.5000000000000071
100
AcDbArc
 50
90.00000000000006
 51
180
  0
LINE
  5
DA
100
AcDbEntity
  8
0
  6
ByLayer
 62
  256
370
   -1
100
AcDbLine
 10
3.024500000000034
 20
93.77469340000002
 11
16.02520000000003
 21
93.7746945941895
  0
ARC
  5
DB
100
AcDbEntity
  8
0
  6
ByLayer
 62
  256
370
   -1
100
AcDbCircle
 10
16.02520000000003
 20
93.2746934
 40
0.4999999999999982
100
AcDbArc
 50
0
 51
90
  0
LINE
  5
DC
100
AcDbEntity
  8
0
  6
ByLayer
 62
  256
370
   -1
100
AcDbLine
 10
54.6253
 20
88.51219339999999
 11
54.62530000000001
 21
73.91129339999999
  0
ARC
  5
DD
100
AcDbEntity
  8
0
  6
ByLayer
 62
  256
370
   -1
100
AcDbCircle
 10
54.1253
 20
73.91129340000001
 40
0.4999999532714927
100
AcDbArc
 50
270
 51
360
  0
LINE
  5
DE
100
AcDbEntity
  8
0
  6
ByLayer
 62
  256
370
   -1
100
AcDbLine
 10
54.1253
 20
73.41129344672852
 11
41.12450000000003
 21
73.41129344672851
  0
ARC
  5
DF
100
AcDbEntity
  8
0
  6
ByLayer
 62
  256
370
   -1
100
AcDbCircle
 10
41.12450000000003
 20
73.91129340000001
 40
0.4999999999999982
100
AcDbArc
 50
180
 51
270
  0
LINE
  5
E0
100
AcDbEntity
  8
0
  6
ByLayer
 62
  256
370
   -1
100
AcDbLine
 10
40.62450000000003
 20
73.91129340000001
 11
40.62450000000002
 21
88.51219339999999
  0
ARC
  5
E1
100
AcDbEntity
  8
0
  6
ByLayer
 62
  256
370
   -1
100
AcDbCircle
 10
41.12450000000003
 20
88.51219339999999
 40
0.5000000000000071
100
AcDbArc
 50
90
 51
180
  0
LINE
  5
E2
100
AcDbEntity
  8
0
  6
ByLayer
 62
  256
370
   -1
100
AcDbLine
 10
41.12450000000003
 20
89.01219339999999
 11
54.1253
 21
89.01219344367676
  0
ARC
  5
E3
100
AcDbEntity
  8
0
  6
ByLayer
 62
  256
370
   -1
100
AcDbCircle
 10
54.1253
 20
88.51219339999999
 40
0.4999999999999982
100
AcDbArc
 50
0
 51
90
  0
LINE
  5
E4
100
AcDbEntity
  8
0
  6
ByLayer
 62
  256
370
   -1
100
AcDbLine
 10
35.57520000000004
 20
78.9871934
 11
35.57520000000004
 21
64.3876934
  0
ARC
  5
E5
100
AcDbEntity
  8
0
  6
ByLayer
 62
  256
370
   -1
100
AcDbCircle
 10
35.07520000000004
 20
64.3876934
 40
0.4999984212890496
100
AcDbArc
 50
-90
 51
0
  0
LINE
  5
E6
100
AcDbEntity
  8
0
  6
ByLayer
 62
  256
370
   -1
100
AcDbLine
 10
35.07520000000004
 20
63.88769497871095
 11
22.07450000000003
 21
63.88769497871095
  0
ARC
  5
E7
100
AcDbEntity
  8
0
  6
ByLayer
 62
  256
370
   -1
100
AcDbCircle
 10
22.07450000000003
 20
64.3876934
 40
0.4999999999999982
100
AcDbArc
 50
180
 51
270.0000000000004
  0
LINE
  5
E8
100
AcDbEntity
  8
0
  6
ByLayer
 62
  256
370
   -1
100
AcDbLine
 10
21.57450000000003
 20
64.3876934
 11
21.57450000000003
 21
78.9871934
  0
ARC
  5
E9
100
AcDbEntity
  8
0
  6
ByLayer
 62
  256
370
   -1
100
AcDbCircle
 10
22.07450000000003
 20
78.98719339999998
 40
0.4999999999999982
100
AcDbArc
 50
90
 51
180
  0
LINE
  5
EA
100
AcDbEntity
  8
0
  6
ByLayer
 62
  256
370
   -1
100
AcDbLine
 10
22.07450000000003
 20
79.48719339999998
 11
35.07520000000004
 21
79.48719497565918
  0
ARC
  5
EB
100
AcDbEntity
  8
0
  6
ByLayer
 62
  256
370
   -1
100
AcDbCircle
 10
35.07520000000004
 20
78.98719339999998
 40
0.4999999999999982
100
AcDbArc
 50
0
 51
90
  0
LINE
  5
EC
100
AcDbEntity
  8
0
  6
ByLayer
 62
  256
370
   -1
100
AcDbLine
 10
16.52520000000003
 20
74.22469339999999
 11
16.52520000000003
 21
59.6251934
  0
ARC
  5
ED
100
AcDbEntity
  8
0
  6
ByLayer
 62
  256
370
   -1
100
AcDbCircle
 10
16.02520000000003
 20
59.6251934
 40
0.4999995718017569
100
AcDbArc
 50
-90
 51
0
  0
LINE
  5
EE
100
AcDbEntity
  8
0
  6
ByLayer
 62
  256
370
   -1
100
AcDbLine
 10
16.02520000000003
 20
59.12519382819824
 11
3.02450000000003
 21
59.12519382819823
  0
ARC
  5
EF
100
AcDbEntity
  8
0
  6
ByLayer
 62
  256
370
   -1
100
AcDbCircle
 10
3.024500000000032
 20
59.6251934
 40
0.4999999999999999
100
AcDbArc
 50
180
 51
269.9999999999997
  0
LINE
  5
F0
100
AcDbEntity
  8
0
  6
ByLayer
 62
  256
370
   -1
100
AcDbLine
 10
2.524500000000032
 20
59.6251934
 11
2.524500000000041
 21
74.22469339999999
  0
ARC
  5
F1
100
AcDbEntity
  8
0
  6
ByLayer
 62
  256
370
   -1
100
AcDbCircle
 10
3.024500000000035
 20
74.22469340000001
 40
0.4999999999999982
100
AcDbArc
 50
90.00000000000006
 51
180
  0
LINE
  5
F2
100
AcDbEntity
  8
0
  6
ByLayer
 62
  256
370
   -1
100
AcDbLine
 10
3.024500000000034
 20
74.72469340000001
 11
16.02520000000003
 21
74.72469192390136
  0
ARC
  5
F3
100
AcDbEntity
  8
0
  6
ByLayer
 62
  256
370
   -1
100
AcDbCircle
 10
16.02520000000003
 20
74.22469340000001
 40
0.4999999999999982
100
AcDbArc
 50
0
 51
90
  0
LINE
  5
F4
100
AcDbEntity
  8
0
  6
ByLayer
 62
  256
370
   -1
100
AcDbLine
 10
54.6253
 20
69.46219339999999
 11
54.62530000000001
 21
54.86129340000001
  0
ARC
  5
F5
100
AcDbEntity
  8
0
  6
ByLayer
 62
  256
370
   -1
100
AcDbCircle
 10
54.1253
 20
54.86129340000001
 40
0.5000026235595634
100
AcDbArc
 50
-90
 51
0
  0
LINE
  5
F6
100
AcDbEntity
  8
0
  6
ByLayer
 62
  256
370
   -1
100
AcDbLine
 10
54.1253
 20
54.36129077644044
 11
41.12450000000003
 21
54.36129077644043
  0
ARC
  5
F7
100
AcDbEntity
  8
0
  6
ByLayer
 62
  256
370
   -1
100
AcDbCircle
 10
41.12450000000003
 20
54.86129340000001
 40
0.4999999999999982
100
AcDbArc
 50
180
 51
270
  0
LINE
  5
F8
100
AcDbEntity
  8
0
  6
ByLayer
 62
  256
370
   -1
100
AcDbLine
 10
40.62450000000003
 20
54.86129340000001
 11
40.62450000000003
 21
69.46219339999999
  0
ARC
  5
F9
100
AcDbEntity
  8
0
  6
ByLayer
 62
  256
370
   -1
100
AcDbCircle
 10
41.12450000000003
 20
69.46219339999999
 40
0.4999999999999982
100
AcDbArc
 50
90
 51
180
  0
LINE
  5
FA
100
AcDbEntity
  8
0
  6
ByLayer
 62
  256
370
   -1
100
AcDbLine
 10
41.12450000000003
 20
69.96219339999999
 11
54.1253
 21
69.96219077338866
  0
ARC
  5
FB
100
AcDbEntity
  8
0
  6
ByLayer
 62
  256
370
   -1
100
AcDbCircle
 10
54.1253
 20
69.46219339999999
 40
0.4999999999999982
100
AcDbArc
 50
0
 51
90
  0
LINE
  5
FC
100
AcDbEntity
  8
0
  6
ByLayer
 62
  256
370
   -1
100
AcDbLine
 10
35.5752
 20
59.9385934
 11
35.5752
 21
45.33769339999999
  0
ARC
  5
FD
100
AcDbEntity
  8
0
  6
ByLayer
 62
  256
370
   -1
100
AcDbCircle
 10
35.0752
 20
45.33769340000001
 40
0.5000010915771558
100
AcDbArc
 50
270
 51
360
  0
LINE
  5
FE
100
AcDbEntity
  8
0
  6
ByLayer
 62
  256
370
   -1
100
AcDbLine
 10
35.0752
 20
44.83769230842285
 11
22.07450000000001
 21
44.83769230842285
  0
ARC
  5
FF
100
AcDbEntity
  8
0
  6
ByLayer
 62
  256
370
   -1
100
AcDbCircle
 10
22.07450000000001
 20
45.33769340000001
 40
0.4999999999999982
100
AcDbArc
 50
180
 51
270.0000000000004
  0
LINE
  5
100
100
AcDbEntity
  8
0
  6
ByLayer
 62
  256
370
   -1
100
AcDbLine
 10
21.57450000000001
 20
45.33769340000001
 11
21.57450000000001
 21
59.9385934
  0
ARC
  5
101
100
AcDbEntity
  8
0
  6
ByLayer
 62
  256
370
   -1
100
AcDbCircle
 10
22.07450000000001
 20
59.9385934
 40
0.4999999999999982
100
AcDbArc
 50
90
 51
180
  0
LINE
  5
102
100
AcDbEntity
  8
0
  6
ByLayer
 62
  256
370
   -1
100
AcDbLine
 10
22.07450000000001
 20
60.4385934
 11
35.0752
 21
60.43859707374268
  0
ARC
  5
103
100
AcDbEntity
  8
0
  6
ByLayer
 62
  256
370
   -1
100
AcDbCircle
 10
35.0752
 20
59.9385934
 40
0.4999999999999982
100
AcDbArc
 50
0
 51
90
  0
LINE
  5
104
100
AcDbEntity
  8
0
  6
ByLayer
 62
  256
370
   -1
100
AcDbLine
 10
16.52520000000001
 20
55.17469340000002
 11
16.52520000000001
 21
40.57519339999999
  0
ARC
  5
105
100
AcDbEntity
  8
0
  6
ByLayer
 62
  256
370
   -1
100
AcDbCircle
 10
16.02520000000001
 20
40.5751934
 40
0.5000022420898187
100
AcDbArc
 50
270
 51
360
  0
LINE
  5
106
100
AcDbEntity
  8
0
  6
ByLayer
 62
  256
370
   -1
100
AcDbLine
 10
16.02520000000001
 20
40.07519115791019
 11
3.024500000000012
 21
40.0751911579102
  0
ARC
  5
107
100
AcDbEntity
  8
0
  6
ByLayer
 62
  256
370
   -1
100
AcDbCircle
 10
3.024500000000014
 20
40.5751934
 40
0.4999999999999999
100
AcDbArc
 50
180
 51
269.9999999999997
  0
LINE
  5
108
100
AcDbEntity
  8
0
  6
ByLayer
 62
  256
370
   -1
100
AcDbLine
 10
2.524500000000014
 20
40.5751934
 11
2.524500000000014
 21
55.17469340000002
  0
ARC
  5
109
100
AcDbEntity
  8
0
  6
ByLayer
 62
  256
370
   -1
100
AcDbCircle
 10
3.024500000000017
 20
55.17469340000002
 40
0.4999999999999982
100
AcDbArc
 50
90
 51
180
  0
LINE
  5
10A
100
AcDbEntity
  8
0
  6
ByLayer
 62
  256
370
   -1
100
AcDbLine
 10
3.024500000000017
 20
55.67469340000002
 11
16.02520000000001
 21
55.67469402198491
  0
ARC
  5
10B
100
AcDbEntity
  8
0
  6
ByLayer
 62
  256
370
   -1
100
AcDbCircle
 10
16.02520000000001
 20
55.17469340000002
 40
0.4999999999999982
100
AcDbArc
 50
0
 51
90
  0
LINE
  5
10C
100
AcDbEntity
  8
0
  6
ByLayer
 62
  256
370
   -1
100
AcDbLine
 10
54.6253
 20
50.41219340000001
 11
54.62530000000001
 21
35.8113934
  0
ARC
  5
10D
100
AcDbEntity
  8
0
  6
ByLayer
 62
  256
370
   -1
100
AcDbCircle
 10
54.1253
 20
35.81139339999999
 40
0.5000005254760609
100
AcDbArc
 50
-90
 51
0
  0
LINE
  5
10E
100
AcDbEntity
  8
0
  6
ByLayer
 62
  256
370
   -1
100
AcDbLine
 10
54.1253
 20
35.31139287452392
 11
41.12450000000003
 21
35.3113928745239
  0
ARC
  5
10F
100
AcDbEntity
  8
0
  6
ByLayer
 62
  256
370
   -1
100
AcDbCircle
 10
41.12450000000003
 20
35.81139339999999
 40
0.4999999999999982
100
AcDbArc
 50
180
 51
270
  0
LINE
  5
110
100
AcDbEntity
  8
0
  6
ByLayer
 62
  256
370
   -1
100
AcDbLine
 10
40.62450000000003
 20
35.81139339999999
 11
40.62450000000003
 21
50.41219340000001
  0
ARC
  5
111
100
AcDbEntity
  8
0
  6
ByLayer
 62
  256
370
   -1
100
AcDbCircle
 10
41.12450000000003
 20
50.41219340000002
 40
0.4999999999999982
100
AcDbArc
 50
90
 51
180
  0
LINE
  5
112
100
AcDbEntity
  8
0
  6
ByLayer
 62
  256
370
   -1
100
AcDbLine
 10
41.12450000000003
 20
50.91219340000002
 11
54.1253
 21
50.91219287147219
  0
ARC
  5
113
100
AcDbEntity
  8
0
  6
ByLayer
 62
  256
370
   -1
100
AcDbCircle
 10
54.1253
 20
50.41219340000002
 40
0.4999999999999982
100
AcDbArc
 50
0
 51
90
  0
LINE
  5
114
100
AcDbEntity
  8
0
  6
ByLayer
 62
  256
370
   -1
100
AcDbLine
 10
16.85660116481962
 20
30.45041609304338
 11
16.52520000000001
 21
30.45041609304338
  0
LINE
  5
115
100
AcDbEntity
  8
0
  6
ByLayer
 62
  256
370
   -1
100
AcDbLine
 10
16.52520000000001
 20
30.45041609304338
 11
16.52520000000001
 21
21.52529340000001
  0
ARC
  5
116
100
AcDbEntity
  8
0
  6
ByLayer
 62
  256
370
   -1
100
AcDbCircle
 10
16.02520000000001
 20
21.5252934
 40
0.5000001440063429
100
AcDbArc
 50
-90
 51
0
  0
LINE
  5
117
100
AcDbEntity
  8
0
  6
ByLayer
 62
  256
370
   -1
100
AcDbLine
 10
16.02520000000001
 20
21.02529325599365
 11
3.024500000000012
 21
21.02529325599367
  0
ARC
  5
118
100
AcDbEntity
  8
0
  6
ByLayer
 62
  256
370
   -1
100
AcDbCircle
 10
3.024500000000014
 20
21.5252934
 40
0.4999999999999999
100
AcDbArc
 50
180
 51
269.9999999999997
  0
LINE
  5
119
100
AcDbEntity
  8
0
  6
ByLayer
 62
  256
370
   -1
100
AcDbLine
 10
2.524500000000014
 20
21.5252934
 11
2.524500000000014
 21
36.12469340000001
  0
ARC
  5
11A
100
AcDbEntity
  8
0
  6
ByLayer
 62
  256
370
   -1
100
AcDbCircle
 10
3.024500000000017
 20
36.12469340000001
 40
0.4999999999999982
100
AcDbArc
 50
90
 51
180
  0
LINE
  5
11B
100
AcDbEntity
  8
0
  6
ByLayer
 62
  256
370
   -1
100
AcDbLine
 10
3.024500000000017
 20
36.62469340000001
 11
16.02520000000001
 21
36.6246913516968
  0
ARC
  5
11C
100
AcDbEntity
  8
0
  6
ByLayer
 62
  256
370
   -1
100
AcDbCircle
 10
16.02520000000001
 20
36.12469340000001
 40
0.5000000000000004
100
AcDbArc
 50
0
 51
90
  0
LINE
  5
11D
100
AcDbEntity
  8
0
  6
ByLayer
 62
  256
370
   -1
100
AcDbLine
 10
16.52520000000001
 20
36.12469340000001
 11
16.52520000000001
 21
32.8495839069566
  0
LINE
  5
11E
100
AcDbEntity
  8
0
  6
ByLayer
 62
  256
370
   -1
100
AcDbLine
 10
16.52520000000001
 20
32.8495839069566
 11
16.85660116481962
 21
32.8495839069566
  0
ARC
  5
11F
100
AcDbEntity
  8
0
  6
ByLayer
 62
  256
370
   -1
100
AcDbCircle
 10
19.05000000000001
 20
31.64999999999999
 40
2.499999999999997
100
AcDbArc
 50
28.67453230275001
 51
151.3254676972499
  0
LINE
  5
120
100
AcDbEntity
  8
0
  6
ByLayer
 62
  256
370
   -1
100
AcDbLine
 10
21.2433988351804
 20
32.8495839069566
 11
21.57450000000001
 21
32.8495839069566
  0
LINE
  5
121
100
AcDbEntity
  8
0
  6
ByLayer
 62
  256
370
   -1
100
AcDbLine
 10
21.57450000000001
 20
32.8495839069566
 11
21.57450000000001
 21
40.88719340000001
  0
ARC
  5
122
100
AcDbEntity
  8
0
  6
ByLayer
 62
  256
370
   -1
100
AcDbCircle
 10
22.07450000000001
 20
40.88719340000001
 40
0.4999999999999982
100
AcDbArc
 50
90
 51
180
  0
LINE
  5
123
100
AcDbEntity
  8
0
  6
ByLayer
 62
  256
370
   -1
100
AcDbLine
 10
22.07450000000001
 20
41.38719340000001
 11
35.0752
 21
41.38719153632813
  0
ARC
  5
124
100
AcDbEntity
  8
0
  6
ByLayer
 62
  256
370
   -1
100
AcDbCircle
 10
35.0752
 20
40.88719340000001
 40
0.4999999999999982
100
AcDbArc
 50
0
 51
90
  0
LINE
  5
125
100
AcDbEntity
  8
0
  6
ByLayer
 62
  256
370
   -1
100
AcDbLine
 10
35.5752
 20
40.88719340000001
 11
35.5752
 21
26.28639340000003
  0
ARC
  5
126
100
AcDbEntity
  8
0
  6
ByLayer
 62
  256
370
   -1
100
AcDbCircle
 10
35.0752
 20
26.28639340000002
 40
0.4999999999999982
100
AcDbArc
 50
-90
 51
0
  0
LINE
  5
127
100
AcDbEntity
  8
0
  6
ByLayer
 62
  256
370
   -1
100
AcDbLine
 10
35.0752
 20
25.78639340000002
 11
22.07450000000001
 21
25.78639392356571
  0
ARC
  5
128
100
AcDbEntity
  8
0
  6
ByLayer
 62
  256
370
   -1
100
AcDbCircle
 10
22.07450000000001
 20
26.28639340000003
 40
0.4999999999999982
100
AcDbArc
 50
180
 51
270.0000000000004
  0
LINE
  5
129
100
AcDbEntity
  8
0
  6
ByLayer
 62
  256
370
   -1
100
AcDbLine
 10
21.57450000000001
 20
26.28639340000002
 11
21.57450000000001
 21
30.45041609304338
  0
LINE
  5
12A
100
AcDbEntity
  8
0
  6
ByLayer
 62
  256
370
   -1
100
AcDbLine
 10
21.57450000000001
 20
30.45041609304338
 11
21.2433988351804
 21
30.45041609304338
  0
ARC
  5
12B
100
AcDbEntity
  8
0
  6
ByLayer
 62
  256
370
   -1
100
AcDbCircle
 10
19.05000000000001
 20
31.64999999999999
 40
2.499999999999993
100
AcDbArc
 50
208.6745323027501
 51
331.32546769725
  0
LINE
  5
12C
100
AcDbEntity
  8
0
  6
ByLayer
 62
  256
370
   -1
100
AcDbLine
 10
16.52519999999999
 20
17.07469339999999
 11
16.52519999999999
 21
2.475303400000008
  0
ARC
  5
12D
100
AcDbEntity
  8
0
  6
ByLayer
 62
  256
370
   -1
100
AcDbCircle
 10
16.02519999999999
 20
2.475303399999996
 40
0.5000000317398121
100
AcDbArc
 50
-90
 51
0
  0
LINE
  5
12E
100
AcDbEntity
  8
0
  6
ByLayer
 62
  256
370
   -1
100
AcDbLine
 10
16.02519999999999
 20
1.975303368260184
 11
12.5245
 21
1.975303368260199
  0
ARC
  5
12F
100
AcDbEntity
  8
0
  6
ByLayer
 62
  256
370
   -1
100
AcDbCircle
 10
12.5245
 20
2.475303399999997
 40
0.5000000000000004
100
AcDbArc
 50
180
 51
269.9999999999998
  0
LINE
  5
130
100
AcDbEntity
  8
0
  6
ByLayer
 62
  256
370
   -1
100
AcDbLine
 10
12.0245
 20
2.475303399999997
 11
12.0245
 21
2.775303390234427
  0
LINE
  5
131
100
AcDbEntity
  8
0
  6
ByLayer
 62
  256
370
   -1
100
AcDbLine
 10
12.0245
 20
2.775303390234427
 11
7.024499999999998
 21
2.775303390234427
  0
LINE
  5
132
100
AcDbEntity
  8
0
  6
ByLayer
 62
  256
370
   -1
100
AcDbLine
 10
7.024499999999998
 20
2.775303390234427
 11
7.024499999999998
 21
2.475303400000008
  0
ARC
  5
133
100
AcDbEntity
  8
0
  6
ByLayer
 62
  256
370
   -1
100
AcDbCircle
 10
6.524499999999996
 20
2.475303399999999
 40
0.5000000000000002
100
AcDbArc
 50
-90.0000000000001
 51
0
  0
LINE
  5
134
100
AcDbEntity
  8
0
  6
ByLayer
 62
  256
370
   -1
100
AcDbLine
 10
6.524499999999995
 20
1.975303399999999
 11
3.024499999999994
 21
1.975303400000001
  0
ARC
  5
135
100
AcDbEntity
  8
0
  6
ByLayer
 62
  256
370
   -1
100
AcDbCircle
 10
3.024499999999997
 20
2.4753034
 40
0.4999999999999999
100
AcDbArc
 50
180
 51
269.9999999999997
  0
LINE
  5
136
100
AcDbEntity
  8
0
  6
ByLayer
 62
  256
370
   -1
100
AcDbLine
 10
2.524499999999997
 20
2.475303400000002
 11
2.524499999999996
 21
17.07469339999999
  0
ARC
  5
137
100
AcDbEntity
  8
0
  6
ByLayer
 62
  256
370
   -1
100
AcDbCircle
 10
3.0245
 20
17.07469339999999
 40
0.5000000000000004
100
AcDbArc
 50
90.0000000000001
 51
180
  0
LINE
  5
138
100
AcDbEntity
  8
0
  6
ByLayer
 62
  256
370
   -1
100
AcDbLine
 10
3.024499999999999
 20
17.57469339999999
 11
6.5245
 21
17.57469317817385
  0
ARC
  5
139
100
AcDbEntity
  8
0
  6
ByLayer
 62
  256
370
   -1
100
AcDbCircle
 10
6.524499999999996
 20
17.07469339999999
 40
0.5000000000000004
100
AcDbArc
 50
0
 51
89.99999999999959
  0
LINE
  5
13A
100
AcDbEntity
  8
0
  6
ByLayer
 62
  256
370
   -1
100
AcDbLine
 10
7.024499999999997
 20
17.07469339999999
 11
7.024499999999998
 21
16.77469324643631
  0
LINE
  5
13B
100
AcDbEntity
  8
0
  6
ByLayer
 62
  256
370
   -1
100
AcDbLine
 10
7.024499999999998
 20
16.77469324643631
 11
12.0245
 21
16.77469324643631
  0
LINE
  5
13C
100
AcDbEntity
  8
0
  6
ByLayer
 62
  256
370
   -1
100
AcDbLine
 10
12.0245
 20
16.77469324643631
 11
12.0245
 21
17.07469339999999
  0
ARC
  5
13D
100
AcDbEntity
  8
0
  6
ByLayer
 62
  256
370
   -1
100
AcDbCircle
 10
12.5245
 20
17.07469339999999
 40
0.5000000000000004
100
AcDbArc
 50
90
 51
180
  0
LINE
  5
13E
100
AcDbEntity
  8
0
  6
ByLayer
 62
  256
370
   -1
100
AcDbLine
 10
12.5245
 20
17.57469339999999
 11
16.02519999999999
 21
17.57469317817385
  0
ARC
  5
13F
100
AcDbEntity
  8
0
  6
ByLayer
 62
  256
370
   -1
100
AcDbCircle
 10
16.02519999999999
 20
17.07469339999999
 40
0.499999999999996
100
AcDbArc
 50
0
 51
90.0000000000004
  0
LINE
  5
140
100
AcDbEntity
  8
0
  6
ByLayer
 62
  256
370
   -1
100
AcDbLine
 10
35.5752
 20
19.45599340000001
 11
35.5752
 21
4.85657340000003
  0
ARC
  5
141
100
AcDbEntity
  8
0
  6
ByLayer
 62
  256
370
   -1
100
AcDbCircle
 10
35.0752
 20
4.85657340000002
 40
0.4999998307434023
100
AcDbArc
 50
-90
 51
0
  0
LINE
  5
142
100
AcDbEntity
  8
0
  6
ByLayer
 62
  256
370
   -1
100
AcDbLine
 10
35.0752
 20
4.356573569256618
 11
22.07450000000001
 21
4.356573569256632
  0
ARC
  5
143
100
AcDbEntity
  8
0
  6
ByLayer
 62
  256
370
   -1
100
AcDbCircle
 10
22.07450000000001
 20
4.856573400000022
 40
0.4999999999999982
100
AcDbArc
 50
180
 51
270.0000000000004
  0
LINE
  5
144
100
AcDbEntity
  8
0
  6
ByLayer
 62
  256
370
   -1
100
AcDbLine
 10
21.57450000000001
 20
4.856573400000024
 11
21.57450000000001
 21
19.45599340000001
  0
ARC
  5
145
100
AcDbEntity
  8
0
  6
ByLayer
 62
  256
370
   -1
100
AcDbCircle
 10
22.07450000000001
 20
19.45599340000001
 40
0.5000000000000004
100
AcDbArc
 50
90
 51
180
  0
LINE
  5
146
100
AcDbEntity
  8
0
  6
ByLayer
 62
  256
370
   -1
100
AcDbLine
 10
22.07450000000001
 20
19.95599340000001
 11
35.0752
 21
19.95599238776858
  0
ARC
  5
147
100
AcDbEntity
  8
0
  6
ByLayer
 62
  256
370
   -1
100
AcDbCircle
 10
35.0752
 20
19.45599340000001
 40
0.4999999999999982
100
AcDbArc
 50
0
 51
90
  0
LWPOLYLINE
  5
148
100
AcDbEntity
  8
0
  6
ByLayer
 62
  256
370
   -1
100
AcDbPolyline
 90
    8
 70
    1
 43
0
 10
73.67485000000001
 20
188.2124984
 42
-0.4142135623730034
 10
73.17484999999998
 20
187.7124984
 10
60.17485
 20
187.7124984
 42
-0.4142135623731117
 10
59.67485000000002
 20
188.2124984
 10
59.67484999999998
 20
202.8124984
 42
-0.4142135623730118
 10
60.17485
 20
203.3124984
 10
73.17484999999998
 20
203.3124984
 42
-0.41421356237312
 10
73.67484999999996
 20
202.8124984
  0
LINE
  5
149
100
AcDbEntity
  8
0
  6
ByLayer
 62
  256
370
   -1
100
AcDbLine
 10
40.62450000000003
 20
9.619073400000033
 11
40.62450000000003
 21
24.21849340000001
  0
ARC
  5
14A
100
AcDbEntity
  8
0
  6
ByLayer
 62
  256
370
   -1
100
AcDbCircle
 10
41.12450000000003
 20
24.21849340000001
 40
0.4999999999999982
100
AcDbArc
 50
90
 51
180
  0
LINE
  5
14B
100
AcDbEntity
  8
0
  6
ByLayer
 62
  256
370
   -1
100
AcDbLine
 10
41.12450000000003
 20
24.71849340000001
 11
54.1253
 21
24.7184906711548
  0
ARC
  5
14C
100
AcDbEntity
  8
0
  6
ByLayer
 62
  256
370
   -1
100
AcDbCircle
 10
54.1253
 20
24.21849340000001
 40
0.4999999999999982
100
AcDbArc
 50
0
 51
90
  0
LINE
  5
14D
100
AcDbEntity
  8
0
  6
ByLayer
 62
  256
370
   -1
100
AcDbLine
 10
54.6253
 20
24.21849340000001
 11
54.62529960674438
 21
9.619073400000033
  0
ARC
  5
14E
100
AcDbEntity
  8
0
  6
ByLayer
 62
  256
370
   -1
100
AcDbCircle
 10
54.1253
 20
9.619073400000023
 40
0.499999606744379
100
AcDbArc
 50
-90
 51
0
  0
LINE
  5
14F
100
AcDbEntity
  8
0
  6
ByLayer
 62
  256
370
   -1
100
AcDbLine
 10
54.1253
 20
9.119073793255644
 11
41.12450000000003
 21
9.119073400000026
  0
ARC
  5
150
100
AcDbEntity
  8
0
  6
ByLayer
 62
  256
370
   -1
100
AcDbCircle
 10
41.12450000000003
 20
9.619073400000026
 40
0.4999999999999982
100
AcDbArc
 50
180
 51
270
  0
CIRCLE
  5
151
100
AcDbEntity
  8
0
  6
ByLayer
 62
  256
370
   -1
100
AcDbCircle
 10
16.75000000000005
 20
210.8872934
 40
2.5
  0
CIRCLE
  5
152
100
AcDbEntity
  8
0
  6
ByLayer
 62
  256
370
   -1
100
AcDbCircle
 10
53.79990100000001
 20
30.09999999999998
 40
2.5
  0
LWPOLYLINE
  5
153
100
AcDbEntity
  8
0
  6
ByLayer
 62
  256
370
   -1
100
AcDbPolyline
 90
   20
 70
    1
 43
0
 10
73.17484999999998
 20
17.5749984
 42
-0.4142135623731159
 10
73.67485000000001
 20
17.0749984
 10
73.67484999999999
 20
2.474998399999997
 42
-0.4142135623730841
 10
73.17484999999998
 20
1.974998399999997
 10
69.67484999999999
 20
1.974998400000001
 42
-0.4142135623731086
 10
69.17484999999999
 20
2.474998399999996
 10
69.17484999999999
 20
2.774998400000008
 10
64.17484999999999
 20
2.774998400000008
 10
64.17484999999999
 20
2.474998399999997
 42
-0.4142135623730768
 10
63.67484999999999
 20
1.974998399999997
 10
60.17485
 20
1.974998399999998
 42
-0.4142135623730961
 10
59.67485
 20
2.474998399999999
 10
59.67485
 20
17.07499840000001
 42
-0.4142135623730722
 10
60.17485
 20
17.5749984
 10
63.67485000000001
 20
17.57499839999999
 42
-0.4142135623731013
 10
64.17485000000001
 20
17.0749984
 10
64.17485000000001
 20
16.77499839999999
 10
69.17485000000001
 20
16.77499839999999
 10
69.17485000000001
 20
17.07499840000001
 42
-0.4142135623730784
 10
69.67484999999999
 20
17.5749984
  0
LWPOLYLINE
  5
154
100
AcDbEntity
  8
0
  6
ByLayer
 62
  256
370
   -1
100
AcDbPolyline
 90
    8
 70
    1
 43
0
 10
60.17484999999999
 20
23.40624839999999
 42
-0.4142135623730805
 10
59.67484999999999
 20
23.9062484
 10
59.67485
 20
38.50624839999998
 42
-0.414213562373095
 10
60.17485
 20
39.0062484
 10
73.17484999999998
 20
39.0062484
 42
-0.4142135623730992
 10
73.67484999999999
 20
38.5062484
 10
73.67484999999999
 20
23.90624840000001
 42
-0.4142135623731137
 10
73.17484999999998
 20
23.40624839999999
  0
LWPOLYLINE
  5
155
100
AcDbEntity
  8
0
  6
ByLayer
 62
  256
370
   -1
100
AcDbPolyline
 90
    8
 70
    1
 43
0
 10
60.17485
 20
44.83749839999998
 42
-0.4142135623730825
 10
59.67485
 20
45.33749839999999
 10
59.67485
 20
59.9374984
 42
-0.4142135623730825
 10
60.17485
 20
60.4374984
 10
73.17484999999998
 20
60.43749840000001
 42
-0.4142135623731242
 10
73.67484999999999
 20
59.9374984
 10
73.67484999999999
 20
45.33749839999999
 42
-0.4142135623731242
 10
73.17484999999998
 20
44.83749839999997
  0
LWPOLYLINE
  5
156
100
AcDbEntity
  8
0
  6
ByLayer
 62
  256
370
   -1
100
AcDbPolyline
 90
    8
 70
    1
 43
0
 10
73.17484999999998
 20
75.7937484
 10
58.97485
 20
75.79374840000001
 42
0.4142135623730992
 10
58.47485
 20
75.29374840000001
 10
58.47485
 20
68.09374840000001
 42
0.414213562373095
 10
58.97485
 20
67.59374840000001
 10
73.17484999999998
 20
67.59374840000001
 42
0.4142135623730784
 10
73.67484999999999
 20
68.0937484
 10
73.67484999999999
 20
75.29374840000003
 42
0.4142135623730867
  0
LWPOLYLINE
  5
157
100
AcDbEntity
  8
0
  6
ByLayer
 62
  256
370
   -1
100
AcDbPolyline
 90
    8
 70
    1
 43
0
 10
73.67485000000001
 20
114.3937484
 10
73.67484999999999
 20
128.9937484
 42
0.4142135623731034
 10
73.17484999999998
 20
129.4937484
 10
60.17485
 20
129.4937484
 42
0.4142135623731034
 10
59.67484999999999
 20
128.9937484
 10
59.67485
 20
114.3937484
 42
0.4142135623730909
 10
60.17485
 20
113.8937484
 10
73.17484999999998
 20
113.8937484
 42
0.4142135623731034
  0
LWPOLYLINE
  5
158
100
AcDbEntity
  8
0
  6
ByLayer
 62
  256
370
   -1
100
AcDbPolyline
 90
    8
 70
    1
 43
0
 10
73.17484999999998
 20
175.8062484
 10
58.97485
 20
175.8062484
 42
0.4142135623730992
 10
58.47485
 20
175.3062484
 10
58.47485
 20
168.1062484
 42
0.414213562373095
 10
58.97485
 20
167.6062484
 10
73.17484999999998
 20
167.6062484
 42
0.4142135623730784
 10
73.67484999999999
 20
168.1062484
 10
73.67484999999999
 20
175.3062484
 42
0.4142135623730867
  0
ENDSEC
  0
SECTION
  2
OBJECTS
  0
DICTIONARY
  5
C
330
0
100
AcDbDictionary
281
    1
  3
ACAD_GROUP
350
D
  0
DICTIONARY
  5
D
330
C
100
AcDbDictionary
281
    1
  0
ENDSEC
  0
EOF
